<?xml version="1.0" encoding="utf-8"?>
<!-- Generator: Adobe Illustrator 17.0.0, SVG Export Plug-In . SVG Version: 6.00 Build 0)  -->
<!DOCTYPE svg PUBLIC "-//W3C//DTD SVG 1.1//EN" "http://www.w3.org/Graphics/SVG/1.1/DTD/svg11.dtd">
<svg version="1.1" id="Layer_1" xmlns="http://www.w3.org/2000/svg" xmlns:xlink="http://www.w3.org/1999/xlink" x="0px" y="0px"
	 width="256px" height="111px" viewBox="0 0 256 111" enable-background="new 0 0 256 111" xml:space="preserve">
<g>
	<path d="M184.354,67.464c-8.494-3.586-17.025-1.335-25.255-0.898c-0.618-0.618-0.971-0.971-1.463-1.463c0-2.973,0-6.091,0-9.006
		c0.494-0.962,0.919-1.79,1.434-2.793c0.697,0,1.481,0,2.119,0c-1.607-1.605-3.204-3.201-4.144-4.139
		c-0.648-3.336-1.403-5.644-1.49-7.977c-0.25-6.665,1.405-12.681,7.02-17.207c0-1.705,0-3.49,0-5.286
		c4.977-3.4,10.149-2.309,15.81-0.858c0.363,0.409,1.132,1.275,1.88,2.116c0.908,4.885,1.477,9.866,2.863,14.76
		c1.35,4.769,4.142,29.241,3.456,32.48c2.762,0,5.639,0,8.553,0c0.204,0.789,0.32,1.238,0.535,2.068c-2.373,0-4.601,0-6.565,0
		c-1.397,1.9-0.608,17.893-1.05,19.035c-0.829,0-1.613,0-2.423,0c1.696-6.592,0.473-13.104,0.91-19.831
		c-0.919,0-1.61-0.171-2.171,0.027c-4.945,1.739-10.059,0.655-15.084,0.992c-2.213,0.148-4.414-0.441-6.657,0.852
		c-1.25,0.721-3.475,0.635-4.879,0.029c-3.353-1.448-6.752-0.749-10.123-0.868c-3.826-0.135-7.661-0.031-11.474-0.031
		c-2.706,1.351-2.657,18.697-2.657,20.713c-1.495-1.086-2.33-1.692-3.18-2.31c2.106-5.806,0.791-11.525,1.246-17.298
		c-1.459-0.069-2.58-0.122-3.83-0.181c-0.106-0.48-0.206-0.934-0.305-1.38c2.328-1.571,4.988,0.05,7.568-1.23
		c2.141-1.062,5.197-0.294,7.847-0.311c2.665-0.017,5.336-0.116,7.993,0.028c2.541,0.138,5.244-0.794,7.463,0.877
		c4.359-1.799,8.835-0.672,13.198-0.868C175.776,67.314,180.068,67.464,184.354,67.464z M160.768,29.662
		c-1.716,1.058-1.983,3.519-2.204,5.763c-0.276,2.802-0.091,5.653-0.06,8.482c0.041,3.821,2.414,5.95,5.594,7.882
		c0.188-0.793,0.387-1.238,0.385-1.683c-0.01-2.728-0.262-5.379-0.821-8.109c-0.687-3.355-0.157-6.957-0.177-10.453
		c-0.002-0.293-1.352-2.441-1.08-2.674c-0.105-0.105-0.21-0.21-0.315-0.315C161.858,28.829,161.625,29.101,160.768,29.662z
		 M166.498,53.605c-2.087,0.855-3.943,1.616-5.742,2.353c-0.318,2.221-0.654,4.567-1.036,7.235
		c0.413,0.344,20.825-0.457,24.639,0.991c2.723-2.343-5.129-36.586-6.921-44.577c-3.454-0.521-11.089-0.094-12.067,0.409
		c0.719,5.934-0.314,11.937,0.93,18.032C167.28,42.842,166.498,47.996,166.498,53.605z"/>
	<path d="M111.083,72.464c-2.108,0-3.328-0.245-4.387,0.063c-1.266,0.368-2.034-1.248-3.363-0.473
		c-0.896,0.523-2.05,0.605-3.311,0.945c-1.602-0.932-3.701-0.257-5.662-0.586c-1.814-0.304-3.558-1.03-5.065-1.489
		c-1.477,0.19-2.851,0.277-4.183,0.564c-1.362,0.294-5.257-0.199-5.813-0.783c-3.137,1.686-6.653,0.046-10.177,1.193
		c0.657,0.998,1.168,1.776,1.687,2.565c2.755,0,5.41,0.075,8.057-0.031c1.394-0.056,2.734-0.237,4.17-0.709
		c1.928-0.633,4.445-0.869,6.651,0.364c1.167,0.652,1.277,0.456,3.506-0.603c0.503,0.758,1.017,1.531,1.535,2.311
		c-0.489,0.324-0.76,0.661-1.005,0.642c-2.378-0.179-10.39-0.128-11.851,0.245c-0.404,1.911-1.611,4.127-0.962,5.393
		c0.923,1.803-0.005,3.579,1.083,5.628c3.565,1.249,7.482,2.622,11.401,3.995c0,0.569,0,1.019,0,1.899
		c-4.244-1.426-8.276-2.781-12.266-4.121c-2.652,0.923-5.246,1.913-7.896,2.722c-2.464,0.752-4.468,3.233-7.474,2.033
		c-0.949-1.518,0.693-2.644,1.229-2.639c3.497,0.035,6.167-2.11,9.251-3.103c0.583-0.188,3.078-8.685,3.323-11.885
		c-3.691,0-7.143,0-9.926,0c-1.426-0.733-2.253-1.158-3.137-1.613c0-2.793,0.048-5.616-0.011-8.437
		c-0.101-4.842-1.339-9.302-4.486-13.128c-0.575-0.699-0.869-1.629-1.672-3.19c0.363-2.912,0.819-6.573,1.309-10.51
		c1.407,0,2.971,0,4.664,0c1.293,0.698,1.656,2.175,1.124,3.337c-1.217,2.658-0.809,5.386-0.97,8.106
		c-0.042,0.718-0.592,1.406-0.939,2.173c0.562,2.501,2.856,4.319,3.034,7.156c0.158,2.52,0.771,5.012,1.203,7.64
		c1.311,0.272,2.814,0.585,4.85,1.008c2.19-1.095,8.605-1.09,11.537,0.316c1.027-0.333,2.034-0.783,3.088-0.965
		c0.949-0.164,1.949-0.035,2.922-0.035c0.039-3.374-3.285-6.362-0.653-9.758c0.054-3.37-0.399-6.802,1.87-10.653
		c1.152-1.227,3.389-1.632,5.916-1.645c2.536-0.013,5.252,0.914,7.348-1.24c0.742,0.703,1.216,1.152,2.028,1.92
		c-0.612,0.239-8.284,1.275-11.063,1.275c-1.428,0.733-3.767,8.628-4.083,12.151c-0.305,3.405,0.656,6.567,2.103,10.013
		c2.194-0.417,4.334,0.561,6.52-0.98C103.287,68.737,108.865,70.721,111.083,72.464z M64.248,42.464c-0.167,0-0.333,0-0.5,0
		c0,2.333,0,4.667,0,7c0.167,0,0.333,0,0.5,0C64.248,47.13,64.248,44.797,64.248,42.464z"/>
	<path d="M107.057,67.499c-0.507-0.035-1.455-0.035-2.344-0.035c-0.111-0.65-0.164-0.96-0.22-1.288
		c2.745-1.954,5.685-3.258,9.092-2.652c5.212-2.712,8.989-6.653,11.283-11.953c0.932-2.155,2.635-3.627,4.238-5.198
		c0.834-0.817,1.741-1.548,1.391-2.909c0.83,0,1.661,0,2.694,0c0.704,1.1,1.467,2.29,1.853,2.893
		c-0.284,1.858-0.493,3.224-0.733,4.793c-0.76,0.76-1.7,1.7-2.727,2.727c0,1.547,0,3.184,0,4.892
		c-1.246,1.207-2.046,3.025-4.641,2.64c-0.907-0.906-2.043-2.04-3.255-3.251c-1.158,1.387-2.026,2.659-3.127,3.678
		c-0.978,0.906-2.215,1.531-3.72,2.536c2.527,2.03,4.617,3.709,7.03,5.648c-0.479,1.028-0.76,2.116-1.402,2.913
		c-1.694,2.102-3.544,4.079-5.492,6.286c1.374,1.513,2.446,2.694,3.665,4.036c-0.247,0.479-0.529,1.025-1.034,2.002
		c0.56,0.305,1.384,0.755,2.268,1.237c-0.834,0.89-1.26,1.344-1.867,1.992c-4.626-0.493-9.55,1.052-14.191-1.209
		c-0.45-0.99-0.894-1.968-1.187-2.614c1.152-4.762,4.703-7.443,7.772-10.613c0-1.045,0-2.16,0-3.222
		C110.602,69.822,108.286,69.752,107.057,67.499c3.725-0.281,5.964,1.861,8.258,3.211c-1.471,4.966-4.103,9.026-7.847,12.232
		c0.042,0.923,0.077,1.694,0.12,2.625c3.519-0.602,6.448,2.087,9.813,0.544c0-0.406,0-0.855,0-1.291
		c-2.826-0.633-2.826-0.633-4.892-4.877c2.686-2.639,5.389-5.294,7.966-7.826c0-0.883,0-1.54,0-2.413
		c-0.991-0.599-2.204-1.09-3.104-1.921C114.251,64.905,110.999,64.71,107.057,67.499z M132.927,47.174
		c-0.314-0.211-0.628-0.421-0.943-0.632c-2.959,2.326-3.985,6.241-6.572,8.652c0.626,2.148,0.626,2.148,3.16,4.152
		c0.444-2.287,0.86-4.424,1.061-5.461C131.037,51.027,131.982,49.101,132.927,47.174z M117.164,82.464c-0.111,0-0.222,0-0.333,0
		c0,0.333,0,0.667,0,1c0.111,0,0.222,0,0.333,0C117.164,83.13,117.164,82.797,117.164,82.464z"/>
	<path d="M117.65,27.464c-8.172,3.094-14.714,7.374-19.898,14.579c2.381,0.421,3.95,0.68,5.733,0.018
		c1.444-0.536,3.088-0.534,4.414-0.735c0.712,0.756,1.142,1.213,1.722,1.83c-2.992,0.454-5.793,1.057-8.622,1.261
		c-2.984,0.215-5.995,0.048-8.942,0.048c-2.533,2.109-3.827,4.619-3.618,8.047c0.254,4.146,0.06,8.32,0.06,12.067
		c-0.516,1.037-0.86,1.729-1.334,2.681c-1.186,0-2.635,0-4.395,0c-0.519-0.603-1.277-1.484-2.263-2.63
		c-0.722-4.046,0.136-5.81,5.991-11.665c0-0.582,0.143-1.282-0.042-1.882c-0.174-0.564-0.694-1.021-0.989-1.425
		c0.485-1.32,0.912-2.48,1.548-4.211c0.588-0.588,1.649-1.649,2.886-2.886c1.602,0,3.389,0,5.051,0
		c2.177-2.013,2.462-4.993,4.671-6.831c2.09-1.741,4.094-3.391,6.572-4.676c2.177-1.129,3.565-3.715,6.528-3.63
		c0.372,0.011,0.745-0.558,1.143-0.821c2.163-1.431,4.256-1.61,7.205-1.191c1.96,0.279,3.998,0.155,5.99,0.026
		c2.31-0.149,4.352,0.705,6.383,1.519c1.924,0.771,3.642,1.832,4.245,4.135c0.266,1.015,1.078,1.888,1.68,2.887
		c0,2.348,0,4.8,0,7.133c-2.284,0.412-4.42,0.797-6.543,1.18c0.241-2.41,0.241-2.41,3.673-3.166c0-1.424,0.032-2.897-0.007-4.368
		c-0.076-2.934-2.173-5.928-4.965-6.205c-2.874-0.284-5.573-1.604-8.584-1.144C120.992,27.706,118.96,27.464,117.65,27.464z
		 M84.954,65.551c2.23-2.891,1.377-5.95,1.612-9.705c-2.53,2.689-3.623,5.128-4.285,8.465c0.346,0.213,0.896,0.583,1.475,0.896
		C84.022,65.35,84.346,65.382,84.954,65.551z"/>
	<path d="M148.269,56.583c1.656-0.425,3.268-0.839,4.989-1.28c0.641,3.504-0.586,6.823,1.459,9.686
		c-1.503,0.455-2.654,0.804-3.863,1.17c-0.539-0.189-15.455,2.352-17.096,0.322c0-1.891,0-3.782,0-5.78
		c2.55-0.163,2.719-2.416,3.219-5.135c1.099,1.408,1.686,2.16,2.54,3.254c0.995-1.18,1.925-2.283,3.134-3.718
		c0.501,0.897,0.907,1.625,1.318,2.362c0.555-0.949,1.101-1.88,1.787-3.053C146.674,55.204,147.447,55.872,148.269,56.583z
		 M151.224,58.182c-4.333,0.905-8.475,1.668-12.552,2.686c-1.141,0.285-2.094,1.323-3.384,2.183
		c3.336,0.527,6.142,1.314,8.948,1.316c2.755,0.002,5.51-0.795,8.473-1.275C150.859,61.9,151.787,60.226,151.224,58.182z"/>
	<path d="M131.287,43.089c-1.725,0.819-2.651,0.956-3.736,0.889c-1.186-0.073-2.407,0.42-3.862,0.717c0-1.115,0-1.886,0-2.945
		c1.657,0,5.075,0.216,4.911,0.324C129.396,42.374,130.192,42.675,131.287,43.089z"/>
	<path d="M138.294,17.188c0.443-0.348,0.668-0.666,0.928-0.699c0.633-0.079,1.282-0.026,1.853-0.026
		c0.904,1.935,1.736,3.715,2.941,6.294c-1.397-0.494-2.273-0.53-2.623-0.977C140.252,20.323,139.302,18.715,138.294,17.188z"/>
	<path d="M135.75,32.489c-0.519,1.975-1.027,3.911-1.628,6.198c-0.906-0.49-1.674-0.905-2.586-1.399
		C133.078,35.695,131.75,32.084,135.75,32.489z"/>
	<path d="M142.022,24.685c-3.194,0.824-3.194,0.824-7.419-2.827C137.495,21.559,137.495,21.559,142.022,24.685z"/>
</g>
</svg>
