<?xml version="1.0" encoding="utf-8"?>
<!-- Generator: Adobe Illustrator 17.0.0, SVG Export Plug-In . SVG Version: 6.00 Build 0)  -->
<!DOCTYPE svg PUBLIC "-//W3C//DTD SVG 1.1//EN" "http://www.w3.org/Graphics/SVG/1.1/DTD/svg11.dtd">
<svg version="1.1" id="Layer_1" xmlns="http://www.w3.org/2000/svg" xmlns:xlink="http://www.w3.org/1999/xlink" x="0px" y="0px"
	 width="256px" height="111px" viewBox="0 0 256 111" enable-background="new 0 0 256 111" xml:space="preserve">
<g>
	<g>
		<path d="M101.833,89.644c-4.396-1.679-4.87-5.323-4.371-9.098c0.359-2.714,1.634-5.297,2.39-7.97
			c0.593-2.097,1.341-4.229,1.421-6.368c0.07-1.892,0.496-7.896-0.076-9.143c-0.346-0.755-1.263-1.247-2.113-1.77
			c-0.769,1.282-1.378,0.205-3.335,0.205c-2.239,0-4.448,0.794-5.133-0.779c-0.645,0.05-1.196-0.079-1.562-0.423
			c0.399-0.835,0.773-1.617,1.142-2.388c0.221-2.154,1.653-4.157,4.299-4.384c0.812-0.389,1.657-0.794,2.552-1.223
			c0.136,0.568,0.161,1.12,0.128,1.659c1.26,0.594,2.07,1.701,2.434,2.959c0.645-0.92,1.667-1.147,3.924-1.588
			c1.49-2.171,3.19-4.648,5.125-7.467c-0.45-3.241-0.931-6.702-1.458-10.504c-2.774-1.986-5.604-4.012-8.03-5.748
			c-3.312-0.107-5.967-0.21-8.699-0.89c-3.058-0.761-13.988,0.1-15.613-0.157c-1.842-0.291-3.398,0.679-5.091,0.959
			c-3.091,0.511-5.675,1.783-7.848,4c-1.747,1.783-3.527,3.535-5.127,5.135c-1.031,2.1-1.964,4.002-2.913,5.934l-1.921-1.921h-3.685
			c-0.55,1.567-1.117,3.184-1.723,4.91c1.154,0,2.779-0.026,2.766-0.045c0.758,1.076,0.078,6.413-0.646,7.511
			c0.276,1.993,0.576,3.516,0.674,5.05c0.106,1.66-0.106,3.345,0.06,4.995c0.172,1.711,0.625,3.395,0.965,5.089
			c0.667,3.325,2.728,5.144,6.149,5.392c0.814,0.059,3.394,1.054,3.829,1.463c0,1.738,0.053,3.404-0.023,5.065
			c-0.037,0.808-0.043,4.193-0.082,4.888c-0.063,1.146-0.344,2.279-0.536,3.43c0.201,0.22-2.294,3.129-4.347,3.164
			c-2.05,0.035-3.549,1.183-4.684,2.178c0.412,0.719,0.818,1.429,1.329,2.322c1.884-1.899,3.937-1.188,5.789-1.549
			c5.262-1.025,5.253-1.139,9.177,0.06c1.669,0.51,3.244,1.262,5.096,1.042c0.627-0.074,1.33,0.481,1.998,0.749
			c0.874-1.645,0.099-2.781-1.174-3.768c-4.465-0.041-8.497-0.993-10.808-2.735c0.415-4.62,0.85-9.46,1.285-14.3
			c-0.377-0.485-0.753-0.971-1.438-1.852c1.426,0,4.1,1.031,4.812,1.333c-2.038,2.65-1.175,5.053-1.404,7.598
			c2.88-0.522,5.337-0.967,8.118-1.471c1.025-4.36,2.09-8.893,3.222-13.709c1.255,2.19,3.529,0.449,5.226,1.883
			c1.255,1.061,3.62,0.724,5.417,1.256c1.76,0.521,3.428,1.353,5.497,2.195c-1.879,6.904-4.663,13.083-7.162,19.476
			c0.28,0.539,0.709,1.363,1.225,2.355c5.426-0.292,10.981,0.276,17.133-0.408C103.031,91.026,102.586,89.932,101.833,89.644z
			 M89.489,89.202c-0.98-2.753,2.245-3.914,2.381-6.464c0.118-2.195,1.844-4.263,2.233-6.496c0.414-2.378,0.093-4.884,0.093-7.335
			c-1.644-1.736-3.639-2.482-6.038-2.339c-3.08,0.183-5.665-1.622-8.535-2.334c-3.409-0.846-3.343-1.113-5.253-4.183
			c0-6.404-0.009-12.894,0.004-19.383c0.005-2.528,0.147-2.934,1.99-6.758c-0.754-0.512-1.524-1.034-2.585-1.753
			c-0.529,2.161-1.023,3.951-1.394,5.767c-0.346,1.695-0.576,18.984,0.128,24.092c0.522,0.958-0.528,9.631-0.093,13.047
			c-0.88,0.451-1.708,0.876-2.658,1.362c-0.319-0.3-0.776-0.731-1.111-1.046c-0.321-1.992-0.62-3.844-1.062-6.592
			c0.375-1.631,2.362-3.535,2.974-6.256c0.425-1.891,0.882-3.729,0.759-5.623c-0.1-1.543-0.645-3.054-0.945-4.588
			c-0.27-1.383,0.109-2.722-0.742-4.216c-0.745-1.308-0.864-3.494,0.691-5.143c-0.414-0.329-0.92-0.731-1.658-1.318
			c-0.199,0.387-0.489,0.949-1.232,2.394c0.221,2.166,0.005,5.426,0.723,8.854c0.838,4.005,0.762,8.412-1.283,12.667
			c-2.365,0.42-5.013,0.891-7.265,1.291c-4.4-2.553-4.4-2.553-5.287-8.72c-2.012-2.487-0.392-5.399-1.071-8.132
			c0.674-0.232,1.789-4.825,2.134-6.179c0.342-1.346,0.568-2.82,1.3-3.94c0.793-1.214,5.803-8.398,8.674-9.879
			c2.347-1.21,7.819-3.405,10.086-3.412c4.331-0.013,8.67-0.163,12.991,0.05c3.025,0.149,6.026,0.807,10.239,1.41
			c1.601,1.086,4.208,2.854,6.241,4.233c0.602,2.593,1.329,4.417,1.367,6.256c0.038,1.848-0.61,3.711-0.924,5.39
			c-1.271,1.271-2.443,2.443-3.958,3.958c-1.055-0.989-2.165-2.03-3.858-3.617c1.651-0.427,2.606-0.674,3.982-1.03
			c-0.509-0.982-0.972-1.877-1.567-3.025c-2.97,2.597-5.376,0.42-8.259-0.286c-0.568,0.292-1.474,0.758-2.345,1.207
			c0.04,0.405,0.071,0.725,0.137,1.397h5.693c0.424,2.005-0.708,2.398-1.883,3.1c-4.493,2.681-4.452,2.751-6.413,6.87
			c-0.509,0.111-0.963,0.21-1.353,0.295c-0.513,2.279,0.166,3.636,2.464,3.919c1.761,1.811,7.465,2.561,9.834,0.069
			c0.629,0.73,1.338,1.553,2.46,2.855c0.025,1.155-1.564,10.792-2.284,11.883c-0.749,1.135-1.166,2.507-1.626,3.811
			c-0.411,1.167-0.36,2.65-1.082,3.524c-1.615,1.956-0.49,4.128-0.928,5.605c1.249,2.094,2.265,3.799,3.632,6.09
			C94.577,90.56,91.883,91.045,89.489,89.202z"/>
		<path d="M173.492,15.882c0-1.203,0-2.661,0-4.434c3.007,0.618,5.822-0.511,8.747,0.992c1.56,0.802,3.872,0.142,6.276,0.142
			c0.96,2.467,2.135,4.841,2.811,7.35c1.615,5.995,3.096,12.024,4.839,17.988c0.918,3.142,1.453,6.394,2.234,9.578
			c0.141,0.575,0.774,1.022,0.949,1.598c0.777,2.552,1.491,4.9,0.422,7.817c-0.989,2.7-0.555,5.921-1.832,8.445
			c-1.967-0.268-3.83-0.725-5.698-0.742c-8.483-0.079-16.968-0.035-25.66-0.035c0-4.181,0-8.292,0-12.99
			c0.921-0.319,2.337-0.557,3.451-1.269c1.036-0.661,1.749-1.827,2.392-2.537c-1.922-1.996-4.337-6.477-4.291-6.529
			c-0.284-2.027-0.762-3.736-0.696-5.423c0.073-1.879,2.603-13.871,3.051-15.388C170.951,18.87,172.335,17.563,173.492,15.882z
			 M196.308,46.68c-1.302-4.308-2.685-8.587-3.387-13.049c-0.246-1.564-0.124-3.301-0.792-4.651
			c-0.724-1.462-1.634-2.746-1.796-4.467c-0.161-1.706-0.496-3.425-1-5.062c-0.495-1.606-1.298-3.116-2.085-4.945
			c-4.05,0.754-7.774-2.203-11.423-0.701c-1.97,5.154-1.41,10.227-1.447,15.254c-0.035,4.653,0.049,9.308-0.046,13.959
			c-0.025,1.208-0.525,2.407-0.835,3.732c0.333,0.974,0.728,2.129,1.239,3.624c-2.231,1.005-4.195,1.889-6.261,2.82
			c0,2.876,0,5.987,0,9.208c9.655,0,19.205,0,28.801,0c0-4.289,0-8.399,0-12.614C196.753,49.682,196.528,47.408,196.308,46.68z
			 M171.874,22.576c-1.182,2.161-1.071,15.921-1.435,17.23c-0.325,1.168-0.068,2.497-0.068,3.899
			c0.934-0.156,1.386-0.232,1.844-0.309c0.65-6.206-0.597-12.397,0.752-18.668C172.711,24.225,172.294,23.402,171.874,22.576z"/>
		<path d="M209.448,67.583c-0.115,0.977-0.152,1.295-0.212,1.806c-4.413,0-8.859,0-13.248,0c-0.553,0.632-0.989,1.13-1.617,1.848
			c0,1.529,0.052,3.345-0.014,5.157c-0.075,2.062-0.53,7.858-0.259,8.916c-1.544,1.726-0.506,4.13-0.688,6.331
			c-0.178,2.145-0.039,4.317-0.039,6.442c-0.506,0.506-0.977,0.977-1.469,1.469c-0.349-0.321-0.698-0.644-1.021-0.941
			c0.98-4.628,0.485-9.286,0.431-13.904c-0.054-4.54,1.259-8.794,1.708-13.823c-0.069-0.021-0.921-0.277-1.772-0.533
			c0.228-0.35,0.456-0.7,0.684-1.05c-4.781,0-9.563,0.01-14.344-0.03c-0.237-0.002-7.131-0.847-9.04-0.778
			c-6.486,0.236-12.988,0.206-19.479,0.047c-3.864-0.095-7.717-0.63-11.577-0.949c-0.625-0.052-1.259-0.007-2.243-0.007
			c0.978,8.473-1.555,16.522-0.889,24.733c0.025,0.304-0.098,0.62-0.178,1.077c-0.405,0.075-0.859,0.159-1.812,0.334
			c0-4.078-0.352-8.053,0.072-11.943c0.914-8.38,0.779-11.35,0.886-11.765c0.16-0.62,0.042-1.312,0.042-2.323
			c-3.588,0-7.169,0-10.811,0c-0.083-0.791-0.13-1.243-0.174-1.668c0.349-0.173,0.624-0.426,0.902-0.429
			c2.664-0.03,5.398,0.345,7.968-0.149c1.642-0.315,11.4,1.094,12.941,1.124c1.665,0.032,3.33,0.007,4.995,0.007s3.33,0,4.996,0
			s3.33,0,4.996,0s3.331-0.032,4.996,0.005c9.248,0.205,18.45,1.433,27.737,1.126c1.753-0.058,3.682,0.173,5.518,0.254
			c2.094,0.091,4.204-0.287,6.31-0.37C205.54,67.526,207.342,67.583,209.448,67.583z"/>
		<path d="M161.263,64.665c-0.857-0.481-22.195,1.367-24.734-2.022c0-2.014,0-3.801,0-5.747c0.416-0.145,0.996-0.346,1.645-0.571
			c0.141-0.881,0.287-1.796,0.514-3.212c1.315,0.941,2.299,1.646,3.579,2.562c0.491-0.69,1.065-1.496,1.643-2.309
			c1.071,0.534,1.892,0.944,2.82,1.406c0.399-0.8,0.729-1.463,1.183-2.375c0.684,0.353,1.351,0.698,2.712,1.4
			c3.176-0.533,7.06-1.185,11.461-1.923c0.003,0.002,0.48,0.418,1.135,0.99C163.895,56.957,162.924,60.847,161.263,64.665z
			 M161.337,54.729c-0.541-0.093-0.703-0.162-0.85-0.14c-2.518,0.376-5.019-0.471-7.65,0.804c-2.162,1.048-4.928,0.194-7.534,0.978
			c-2.405,0.724-5.03,0.56-7.169,2.993c0.366,0.949,0.805,2.085,1.242,3.218c5.492,0,10.623,0.001,15.755,0
			c2.219,0,4.524,0.326,6.207-1.576C161.337,58.984,161.337,56.999,161.337,54.729z"/>
	</g>
</g>
</svg>
