<?xml version="1.0" encoding="utf-8"?>
<!-- Generator: Adobe Illustrator 17.0.0, SVG Export Plug-In . SVG Version: 6.00 Build 0)  -->
<!DOCTYPE svg PUBLIC "-//W3C//DTD SVG 1.1//EN" "http://www.w3.org/Graphics/SVG/1.1/DTD/svg11.dtd">
<svg version="1.1" id="Layer_1" xmlns="http://www.w3.org/2000/svg" xmlns:xlink="http://www.w3.org/1999/xlink" x="0px" y="0px"
	 width="256px" height="111px" viewBox="0 0 256 111" enable-background="new 0 0 256 111" xml:space="preserve">
<g>
	<path d="M118.992,70.954c-3.218,0.337-6.556,0.756-9.906,1.02c-5.475,0.432-10.121-1.257-13.672-5.598
		c-0.525-0.642-1.169-1.185-1.758-1.774c-0.438-2.167,0.577-4.582-1.003-6.411c0.981-3.182,1.835-6.316,2.916-9.369
		c1.568-4.434,3.539-8.578,6.706-12.262c2.335-2.716,4.739-5.353,7.158-7.99c3.316-3.614,7.262-6.059,12.097-6.843
		c0-0.536,0-0.866,0-1.555c-1.382-0.082-2.802-0.166-4.454-0.264c-2.51,3.248-5.856,4.801-10.38,3.865
		c-0.548-3.857-0.053-7.686,2.379-11.724c2.233-0.71,5.033-1.6,7.609-2.419c1.306,1.306,2.249,2.249,3.097,3.097
		c6.275,1.107,12.195,2.857,17.765,6.185c2.566-0.961,5.474-2.884,8.374-1.774c2.671,1.022,6.122,1.203,7.624,5.084
		c0,2.498-0.751,5.916,0.206,8.759c1.005,2.985,0.362,5.766,0.938,9.035c-2.346-1.138-4.337-2.103-6.561-3.182
		c-1.01,1.367-1.819,2.995-3.101,4.045c-1.281,1.05-3.036,1.521-4.448,2.183c0,1.019,0,1.676,0,2.582
		c3.626,2.011,6.591,5.732,11.862,5.315c1.476-3.991,4.602-7.446,4.081-12.357c1.174-1.026,2.414-2.108,4.135-3.611
		c0.222,0,1.466,0.389,2.138-0.066c3.408-2.307,5.66-0.183,7.983,1.815c0.756,0.65,1.421,1.405,2.151,2.135
		c0.927-2.712,1.848-5.404,2.969-8.683c2.894-2.153,4.264-5.584,3.599-9.654c0.825-0.825,1.532-1.532,2.293-2.292
		c4.406-0.485,8.863-0.976,13.414-1.477c1.907,5.835,8.006,22.662,8.552,25.774c0.576,3.283,2.261,6.364,3.37,9.565
		c0.307,0.884,0.712,2.109,0.347,2.789c-1.852,3.447-0.361,7.111-1.016,10.292c-0.763,1.591-1.414,2.95-2.296,4.792
		c2.086,0,3.656,0,5.286,0c0,0.803,0,1.254,0,1.665c-3.212-0.298-6.346-0.589-9.13-0.847c-0.833,0.783-1.209,3.172-0.929,3.646
		c-1.763,6.408-0.282,12.859-1.018,19.336c-0.383,0.084-0.837,0.183-1.654,0.361c-0.368-2.703-0.111-5.324-0.161-7.92
		c-0.048-2.498-0.169-5.01,0.034-7.493c0.203-2.484,0.767-4.939,1.258-7.924c-2.576,0.544-4.696-0.599-6.629,0.965
		c-0.318,0.257-1.101,0.39-1.37,0.186c-3.43-2.599-6.762,0.564-10.205,0.131c-3.444-0.434-7.165-0.767-10.429,0.107
		c-2.87,0.769-5.83,0.088-8.476,1.183c-2.903,1.201-5.846,0.164-8.953,0.735c-0.88,2.429-0.45,19.472-0.203,22.606
		c-0.58,0.135-1.032,0.24-1.681,0.391c-0.314-2.394-0.617-4.704-1.027-7.825c-0.16,0.232-0.822-6.229-0.377-7.487
		c0.357-1.009-0.702-5.281,0.969-6.219c-1.266-2.532-3.748-1.219-5.742-1.672c-0.071-0.57-0.128-1.022-0.181-1.449
		c0.345-0.18,0.613-0.432,0.894-0.446c0.997-0.05,2.001-0.074,2.997-0.011c7.396,0.469,14.819,0.02,22.051-1.158
		c9.392-1.529,18.746-0.332,28.097-0.841c1.279-0.07,2.565-0.01,3.96-0.811c-1.568-0.4-3.158-1.213-4.699-1.129
		c-7.392,0.405-14.635-1.432-22.148-1.265c0-3.448,0-6.9,0-10.188c0.38-0.789,0.715-1.485,1.179-2.448
		c0.669-0.1,1.59-0.238,2.593-0.389c0.037-0.731,0.069-1.373,0.095-1.891c-1.625-2.123-3.18-4.154-4.955-6.471
		c0-1.459,0-3.245,0-5.548c-0.651,0.422-1.111,0.548-1.21,0.811c-0.91,2.42-2.637,3.801-5.138,4.346
		c-0.427,0.093-0.774,0.553-1.442,1.059c-1.138,0-2.59,0-4,0c-2.949,3.878-3.575,9.098-8.05,11.929c-2.436,0-5.097,0-7.944,0
		c-0.834,2.254-3.038,3.318-4.733,4.868c-1.651,1.51-3,3.267-5.122,4.432c-1.819,0.999-2.892,3.353-4.299,5.112
		c0,1.09,0,2.207,0,3.371c1.265,0.807,2.462,1.571,3.737,2.385c0,0.825,0,1.609,0,2.604c-1.7,0-3.481,0-5.603,0
		C127.84,76.166,122.843,74.336,118.992,70.954z M131.968,59.145c-0.68-0.765-0.879-1.142-1.022-1.122
		c-0.478,0.068-0.936,0.277-1.401,0.432c0.603,0.171,0.177-1.235,0.363-1.29c3.583-1.056,6.012-3.406,7.64-7.056
		c0-1.628,0-3.626,0-5.656c1.105-1.518,2.229-3.062,3.264-4.482c0.95,0,1.611,0,2.471,0c1.128-1.74,2.305-3.557,3.825-5.904
		c-6.28-0.031-9.775,5.122-14.96,6.149c-0.514-0.643-0.926-1.158-1.598-1.999c0.074-2.427-0.548-5.405,2.124-7.841
		c1.066-0.335,2.33-0.733,3.419-1.075c0.664,0.325,1.217,0.596,1.725,0.845c0.51-0.472,0.87-0.806,1.006-0.932
		c4.383,1.366,8.477,3.067,10.98,6.569c1.113,0,1.884,0,2.61,0c0-1.66,0-3.112,0-4.663c-1.278-0.935-2.521-1.844-3.854-2.82
		c1.013-0.224,1.962-0.434,2.911-0.643c-0.009-0.198-0.019-0.397-0.028-0.595c-2.942-0.494-5.883-0.989-9.142-1.537
		c0.525-0.886,0.985-1.663,1.3-2.195c3.049,0.605,5.864,1.163,8.845,1.754c0-1.178,0-1.963,0-3.223
		c-2.306-0.925-4.66-2.353-7.178-2.761c-3.372-0.546-6.779-0.226-8.275,3.881c-0.417,1.145-1.218,2.251-2.102,3.109
		c-3.589,3.482-6.888,7.134-8.874,11.832c-0.242,0.573-1.399,0.76-2.131,1.126c-0.254-0.237-0.508-0.473-0.762-0.71
		c1.714-1.866,2.014-4.393,3.804-6.282c2.996-3.161,5.562-6.708,9.061-9.971c-0.596-1.005-0.925-2.381-1.723-2.755
		c-2.781-1.302-5.691-2.359-8.615-3.316c-3.38-1.107-7.057-1.445-10.064-4.251c-1.724,1.703-4.942,1.084-5.843,4.058
		c-0.423,1.949-0.847,3.897-1.313,6.04c1.472,0,2.593,0,3.74,0c1.271-1.271,2.566-2.566,4.131-4.131
		c2.63,0.398,5.51,0.652,8.296,1.306c2.813,0.66,5.811,1.105,7.883,3.396c-2.055,2.436-3.981,4.839-6.038,7.124
		c-1.73,1.921-3.81,3.541-4.928,5.963c-1.12,2.424-3.13,4.106-4.955,5.939c-0.176,0.177-0.453,0.252-0.691,0.378
		c-0.446-0.478-0.869-0.932-1.29-1.383c1.361-1.361,3.148-2.434,3.856-3.996c1.805-3.982,4.942-6.74,7.871-9.728
		c1.078-1.1,2.176-2.18,3.583-3.586c-1.968-0.769-3.398-1.327-5.036-1.967c-1.405,1.671-3.504,2.406-5.869,3.02
		c-2.173,0.564-4.089,2.113-6.102,3.218c-1.202,2.734-3.895,4.265-5.759,6.5c-1.858,2.228-3.692,4.477-5.554,6.739
		c-0.032,0.601,0.201,1.544-0.144,1.865c-2.542,2.366-3.434,5.579-4.516,8.65c-1.732,4.915-2.386,9.897-0.184,14.466
		c2.786,1.624,5.194,3.028,7.347,4.283c5.014,0.47,9.476-0.833,14.212-1.571c0.822,1.201,2.408,0.509,3.82,0.596
		c2.579-2.739,5.413-4.99,9.96-4.957c-2.642,2.546-5.479,4.049-8.469,5.421c0,0.627,0,1.276,0,2.006
		c1.394,1.849,3.172,3.216,5.835,3.574c0.073-1.346,0.133-2.465,0.202-3.746c2.938-1.3,3.144-5.163,6.524-6.631
		c2.811-1.22,4.277-4.8,6.48-5.751c-1.288-1.4-2.824-3.069-4.553-4.948c-0.625,0.832-1.343,1.788-2.192,2.917
		c-1.009,0.537-2.287,1.216-3.396,1.806c0.811,1.617,1.488,2.828,2.01,4.103c0.134,0.327-0.219,0.853-0.336,1.25
		c-0.803,0-1.465,0-2.624,0c0-0.616,0-1.233,0-2.264c-1.234,0.476-1.985,0.766-2.737,1.056c-0.217-0.623-0.419-1.201-0.742-2.128
		c-1.971,0.702-3.802,1.639-5.736,1.963c-1.884,0.316-3.72,2.406-6.851,0.095C120.628,60.73,125.011,59.166,131.968,59.145z
		 M204.437,51.369c-2.079-6.133-3.722-11.428-5.673-16.607c-1.953-5.185-2.673-10.808-5.525-15.888
		c-3.878,0.477-7.663,0.943-11.694,1.44c0,3.233,0.146,6.537-0.04,9.822c-0.19,3.361,0.757,18.888-0.836,20.503
		c-0.728,0.738-0.124,2.79-0.124,4.113c-1.503,0.955-2.699,1.715-4.017,2.553c0.095,2.584-0.137,5.157,0.172,7.89
		c5.316-1.048,10.013,1.526,14.937,0.795c1.054,1.228,2.486-0.256,3.098,0.109c2.818,1.677,5.708,0.46,8.279,0.923
		c0.611-0.611,0.964-0.964,1.424-1.424C204.437,60.748,204.437,55.788,204.437,51.369z M155.254,54.623
		c1.265-3.895,2.675-7.695,5.701-10.604c5.204-0.068,5.204-0.068,9.756-4.827c-1.892-1.209-3.73-2.384-5.303-3.389
		c-2.812,1.072-5.496,1.325-6.922,3.968c0,1.542,0,3.19,0,4.303c-1.865,3.274-3.488,6.122-5.005,8.784c-2.139,0-3.924,0-5.043,0
		c-2.889-1.771-5.241-3.213-7.598-4.658c-1.697,1.123-1.386,2.78-1.132,4.769c3.734,1.282,7.617,2.615,11.158,3.83
		C152.424,56.026,153.666,55.41,155.254,54.623z M179.244,30.146c-2.426,2.439-3.641,5.426-3.697,8.851
		c-0.077,4.773,0.583,6.796,2.997,8.867c0-3.46-0.688-6.955,0.208-9.981C179.53,35.262,179.216,32.845,179.244,30.146z
		 M135.59,36.907c-0.208-1.718,0.298-3.381-0.675-5.41c-1.007,0.816-1.717,1.392-2.199,1.783c0,1.365,0,2.459,0,3.627
		C133.662,36.907,134.436,36.907,135.59,36.907z M136,34.618c1.061,0.199,1.619,0.304,2.381,0.447c0-1.459,0-2.672,0-3.885
		c-0.192-0.071-0.385-0.142-0.577-0.213C137.255,32.078,136.706,33.188,136,34.618z M140.659,33.604
		c0.68-0.322,1.359-0.643,2.758-1.306c-1.489-0.194-1.935-0.32-2.371-0.29c-0.482,0.033-0.954,0.208-1.617,0.366
		C140.142,33.088,140.593,33.539,140.659,33.604z"/>
	<path d="M121.589,72.426c-0.455,5.751-3.25,8.366-8.157,8.607c-3.845,0.19-7.67,0.766-11.484,1.168
		c-0.469,0.414-0.964,0.851-1.621,1.432c1.328,1.963,1.657,4.081,0.888,6.301c-0.442,0.024-0.767,0.042-1.012,0.055
		c-1.473-3.401-2.934-6.775-4.396-10.149c-0.655-1.98,1.33-2.572,1.991-3.514c3.132-0.475,5.96-1.039,8.816-1.298
		c2.851-0.259,5.799,0.454,9.357-1.693c-0.764,1.835-1.138,2.733-1.381,3.315c-5.89,0.402-11.361,0.775-16.925,1.155
		c0,1.223,0,2.005,0,3.192c5.825-0.725,11.508-2.694,17.802-1.863C117.381,77.037,119.339,74.892,121.589,72.426z"/>
	<path d="M151.628,68.99c0-1.972,0-3.613,0-5.486c1.067-0.934,2.303-2.017,3.483-3.051c0.868,0.17,1.999,0.392,3.113,0.61
		c0.203-0.788,0.32-1.238,0.527-2.04c1.469,0,3.04,0,4.625,0c0.122-1.132,0.207-1.918,0.298-2.756
		c2.74,1.434,5.659,0.335,8.47,0.846c0.397,0.774,0.822,1.6,1.256,2.446c-1.271,0.808-0.814,2.219-0.849,3.482
		c-0.032,1.159-0.007,2.32-0.007,3.441c-0.859,0.859-1.682,1.682-2.505,2.506C164.052,68.99,158.062,68.99,151.628,68.99z
		 M170.545,58.99c-1.515,0-2.88-0.405-3.418,0.09c-0.94,0.864-1.453,0.63-2.122,0.058c-3.242,3.096-8.039,2.97-11.833,5.784
		c0.551,1.064,1.091,2.109,1.655,3.199c0.616-0.512,2.064-0.373,1.954-0.462c3.838-0.427,7.187-0.799,10.642-1.183
		c0.353,0.167,0.905,0.428,1.513,0.716c0.527-0.628,0.949-1.13,1.609-1.915c0-0.769,0-1.906,0-3.043
		C170.545,61.264,170.545,60.294,170.545,58.99z"/>
	<path d="M77.599,85.704c1.941-0.058,0.983,3.17-0.118,6.881c2.901,1.236,5.942,2.532,9.022,3.844c0,0.63,0,1.282,0,2.2
		c-3.1,2.65-6.356,5.432-9.812,8.386c0-1.013,0-1.795,0-2.538c2.803-1.897,5.682-3.778,8.476-6.613
		c-2.559-1.338-4.633-2.564-6.826-3.514c-1.291-0.559-2.642-0.706-4.07,0.311c-1.476,1.05-3.294,1.619-5.215,2.517
		c-1.228-2.973-2.423-5.864-3.831-9.273c2.403,0.232,3.463,1.021,3.307,3c-0.138,1.742,0.587,2.753,2.464,3.167
		C72.925,89.24,76.962,85.994,77.599,85.704c-3.316,4.633-3.691,5.846-4.156,7.348c2.262-0.149,3.221-0.951,3.088-2.781
		c-0.033-0.446-0.238-0.879-0.354-1.281C75.706,88.99,75.374,88.99,77.599,85.704z"/>
	<path d="M50.901,89.825c2.148,2.162,3.974,3.999,5.85,5.888c-0.922,4.628-4.974,4.891-7.966,6.433
		c-2.134-1.805-2.134-1.805-2.001-5.203c0.859,1.18,1.595,2.192,2.382,3.273c2.521-0.883,5.429-0.864,5.448-4.854
		c-2.589-2.208-5.325-4.541-8.061-6.874c0.131-0.203,0.262-0.405,0.393-0.608c0.791,0.335,1.581,0.67,2.502,1.061
		c3.727-1.076,6.387-5.276,11.408-4.773C57.438,86.11,54.401,87.836,50.901,89.825z"/>
	<path d="M84.044,41.103c-0.672-0.2-0.968-0.288-1.474-0.438c0.528-2.851,2.171-5.423,2.056-8.51c-0.1-2.681-0.65-5.938-0.956-8.761
		c-0.361-3.325-3.359-4.921-4.387-8.297c0.974,0.17,1.854,0.059,2.215,0.44c0.854,0.9,1.51,2.005,2.155,3.081
		c0.958,1.598,1.838,3.242,2.84,5.025C86.654,35.184,86.654,35.184,84.044,41.103z"/>
	<path d="M95.69,35.689c1.691-2.975,1.356-6.425,2.766-9.399c1.077-2.273-0.455-4.712-1.173-6.883
		c-0.611-1.848-2.391-3.309-3.848-5.193c0.842-0.102,1.59-0.192,2.667-0.322c3.661,4.045,4.628,8.998,4.443,14.336
		C98.427,30.421,99.95,34.831,95.69,35.689z"/>
	<path d="M93.545,89.458c0,1.352,0,2.176,0,3.042c-1.157,1.131-2.335,2.283-3.408,3.332c-2.023-1.403-4.062-2.817-6.89-4.778
		c-1.343-1.635-0.453-4.14,0.885-6.969C88.493,83.051,90.68,86.932,93.545,89.458z M91.174,92.915
		c0.518-1.246,0.831-1.998,1.111-2.672c-1.913-1.455-3.677-2.796-5.32-4.046c-0.803,0-1.57,0-2.304,0c0,1.651,0,3.09,0,4.057
		c1.418,1.061,2.529,1.892,3.557,2.661C89.262,92.915,90.229,92.915,91.174,92.915z"/>
	<path d="M162.848,23.791c-1.179,0-1.956,0-2.978,0c-6.62-5.398-9.309-13.279-5.681-19.806c0.317,0.032,0.636,0.065,1.275,0.13
		c-0.306,2.459-1.042,4.96-0.793,7.36c0.229,2.215,1.162,4.561,2.426,6.412C158.545,20.006,160.7,21.644,162.848,23.791z"/>
	<path d="M163.846,4.962c0.633,0.049,0.953,0.073,1.486,0.114c0,2.396,0,4.823,0,6.999c2.49,2.953,3.759,6.784,8.302,7.054
		c-0.16,0.791-0.273,1.35-0.453,2.241c-2.691-1.564-5.755-2.102-7.275-4.637c-1.398-2.332-3.541-4.511-3.305-7.515
		C162.716,7.754,163.426,6.336,163.846,4.962z"/>
	<path d="M84.371,72.591c-2.32,2.391-3.608,6.16-7.523,7.575c-0.964-2.931,1.796-2.672,2.683-3.835
		c0.96-1.259,1.808-2.603,3.094-4.476c0-0.723,0-2.17,0-2.438c0.793-1.388,1.098-1.922,1.747-3.056
		C84.371,68.902,84.371,70.684,84.371,72.591z"/>
	<path d="M85.753,80.356c-0.724-0.549-0.994-0.708-1.195-0.929c-0.082-0.09-0.014-0.316-0.014-0.289
		c1.761-1.8,3.434-3.51,4.992-5.102c0-2.153,0-3.921,0-5.8c0.569-0.122,1.017-0.218,1.814-0.389c0.094,1.851,0.181,3.588,0.26,5.146
		C90.438,76.355,87.712,78.041,85.753,80.356z"/>
	<path d="M99.439,94.596c0.57-0.57,1.035-1.035,1.356-1.356c3.356,0,6.563,0,9.77,0C106.835,93.349,103.391,96.132,99.439,94.596z"
		/>
	<path d="M93.798,97.871c2.846,0.472,5.693,0.944,8.566,1.421c0.473,1.28-0.017,1.976-1.292,1.666
		c-2.498-0.609-4.95-1.404-7.421-2.122C93.7,98.514,93.749,98.193,93.798,97.871z"/>
</g>
</svg>
