<?xml version="1.0" encoding="utf-8"?>
<!-- Generator: Adobe Illustrator 17.0.0, SVG Export Plug-In . SVG Version: 6.00 Build 0)  -->
<!DOCTYPE svg PUBLIC "-//W3C//DTD SVG 1.1//EN" "http://www.w3.org/Graphics/SVG/1.1/DTD/svg11.dtd">
<svg version="1.1" id="Layer_1" xmlns="http://www.w3.org/2000/svg" xmlns:xlink="http://www.w3.org/1999/xlink" x="0px" y="0px"
	 width="256px" height="111px" viewBox="0 0 256 111" enable-background="new 0 0 256 111" xml:space="preserve">
<g>
	<path d="M69.848,20.651c4.607,0.449,6.47,5.566,11.219,5.734c-3.185,3.185-5.845,5.845-8.072,8.071c0,1.852,0,2.979,0,4.21
		c0.623-0.06,1.425-0.011,1.464-0.16c0.575-2.215,2.584-3.202,3.844-4.853c1.372,1.701,3.206,1.197,4.692,0.978
		c4.502-0.664,8.351,1.739,12.543,2.469c2.122,0.37,4.1,2.253,5.875,3.766c2.273,1.939,4.259,4.212,6.401,6.308
		c1.46,1.43,2.079,3.125,2.033,5.163c-0.066,2.983-0.017,5.97-0.017,7.967c-1.623,4.863-4.482,7.696-7.362,10.146
		c-1.987,0.581-3.773,1.104-6.059,1.772c1.664,0.59,2.889,1.196,4.183,1.436c1.393,0.258,2.849,0.172,5.082,0.272
		c-4.323,4.183-10.062,3.471-14.059,6.517c1.551,1.458,3.15,2.531,4.143,4.01c1.098,1.635,1.847,3.569,2.794,5.304
		c1.222,2.241-1.631,3.541-0.473,5.894c5.371-0.683,10.585-3.467,16.639-2.87c0.042,0.853,0.087,1.756,0.162,3.273
		c-4.83-2.97-8.88-0.263-12.765,1.109c-3.461,1.222-6.315,1.971-9.986,0.703c-2.529-0.873-5.603-0.168-8.877-0.168
		c-0.987,1.196-2.155,2.612-3.651,4.425c-0.381-1.018-0.665-1.777-1.247-3.329c0.686-0.431,1.5-1.007,2.372-1.477
		c1.763-0.95,3.557-1.842,5.054-2.612c3.407,0.677,6.467,1.285,9.616,1.911c0.493-0.994,1.038-2.094,1.507-3.04
		c-2.711-8.073-2.711-8.073-6.707-11.876c-2.582-0.245-4.67,0.725-6.436,2.558c-1.485,1.54-3.203,2.605-5.457,2.427
		c-0.816-1.961-2.859-3.805,0.352-6.344c-1.463-0.585-2.588-1.034-3.713-1.483c0.256-0.386,0.511-0.772,0.767-1.158
		c-0.782,0-1.592,0.129-2.339-0.032c-1.003-0.215-4.567-0.313-5.343,0.032c-1.589,0.706-3.149,1.602-5.117,0.658
		c-0.034-0.557-0.073-1.193-0.125-2.043c1.867-2.021,3.727-4.203,6.95-4.869c-1.035-2.031-2.05-4.022-3.052-5.989
		c0.436-0.494,0.757-0.858,0.918-1.041c-1.845-1.333-3.642-2.832-5.632-4.006c-1.574-0.928-3.383-1.457-5.514-1.471
		c-0.797-0.991-1.594-1.982-2.483-3.087c1.092-0.81,2.364-1.755,3.92-2.909c-1.316-0.087-2.53-0.056-3.696-0.277
		c-1.011-0.192-1.967-0.67-2.938-1.017c-0.314,0.778-0.544,1.349-0.785,1.944c-1.458,0-2.908,0-4.309,0
		c-0.341-0.817-0.637-1.527-1.018-2.439c0.628-1.696,1.355-3.659,2.084-5.628c1.501-0.759,2.878-1.455,4.653-2.352
		c-0.473-2.828-0.062-9.441,0.451-9.562c0.906-2.358,1.841-4.791,3.096-8.06c1.915-2.174,5.056-3.785,8.991-4.012
		c0.975-2.025,2.564-3.176,5.281-2.729C69.76,19.448,69.817,20.068,69.848,20.651c-0.846,0.051-1.674,0.051-2.722,0.051
		c-0.596,1.633-1.217,3.336-2.011,5.512c-0.813-1.038-1.389-1.775-1.92-2.453c-0.694,0-1.339,0-2.303,0
		c-1.587,2.03-3.708,3.973-4.824,6.382c-1.141,2.463-1.297,5.383-1.919,8.263c1.593,1.334,0.553,5.658,0.733,5.34
		c0.448-0.045,1.101-0.251,1.423-0.011c1.799,1.342,3.396,2.991,5.295,4.155c2.452,1.504,4.824,3.695,8.053,2.534
		c5.229-7.854,5.229-7.854,11.153-10.554c0.797,0.462,1.46,0.848,2.708,1.572c-1.864,0.713-3.011,1.152-4.848,1.854
		c-2.969,3.177-6.471,6.925-9.642,10.318c-5.115-1.522-9.096-3.861-12.801-6.829c-1.214-0.972-3.228-0.945-4.66-1.319
		c-1.261,1.261-2.283,2.139-3.11,3.173c-0.387,0.484-0.395,1.269-0.575,1.918c2.919-1.806,5.796-0.486,7.351-0.737
		c4.076,1.329,7.137,2.542,9.582,4.854c0.533,0.504,1.343,0.756,2.066,1.008c0.844,0.294,1.732,0.461,2.602,0.683
		c3.556,0.329,3.675-3.618,6.074-5.155c2.337-1.496,4.712-3.56,5.804-6.621c0.951,1.137,1.858,2.22,3.027,3.618
		c-2.057,0.714-3.651,1.267-5.002,1.735c-2.149,3.53-5.48,5.798-7.971,8.756c-1.237,0-2.421,0.132-3.56-0.041
		c-0.949-0.144-1.844-0.645-2.763-0.988c0.148,1.5,0.669,2.64,1.503,2.959c2.623,1.001,4.708,2.4,5.847,5.097
		c0.229,0.542,1.202,0.769,2.353,1.449c0-3.476,0-6.395,0-8.938c0.705-0.705,1.058-1.058,1.508-1.508
		c5.759-0.567,10.634,3.727,16.544,2.968c-0.078,0.861-0.119,1.313-0.157,1.733c-2.7,0.742-5.131,0.006-7.593-0.711
		c-2.321-0.676-4.69-1.185-7.517-1.886c-1.648,4.095-0.167,8.452-0.79,11.792c-1.097,1.428-1.8,2.343-2.295,2.988
		c-2.157,0.099-3.919,0.179-6.533,0.299c4.061,1.009,7.226,1.796,10.551,2.622c0.274-0.291,0.73-0.774,0.932-0.987
		c-0.998-4.322-1.358-8.28,1.612-11.707c6.301-1.211,10.201,3.019,14.637,5.84c1.055-0.332,2.092-0.637,3.114-0.985
		c1.313-0.446,2.775-0.685,3.891-1.434c4.097-2.749,5.76-9.682,4.729-14.634c-0.883-4.24-4.043-6.306-6.652-8.851
		c-2.912-2.84-6.6-4.352-10.652-5.605c-4.167-1.289-8.069-1.4-12.202-1.434c-1.114,2.371-2.311,4.298-4.859,4.689
		c-1.083-0.662-2.156-1.319-3.104-1.898c0-1.684,0-3.136,0-4.456c2.365-2.365,4.603-4.603,7.119-7.119
		c-2.175-0.561-2.463-3.663-5.247-3.253c-0.661-0.52-1.322-1.041-2-1.574C69.83,22.343,69.83,21.523,69.848,20.651z M98.522,74.865
		c-4.218-0.44-7.38,0.01-10.367,1.805c-0.9,0.541-2.016,0.86-3.064,0.958c-0.459,0.043-0.994-0.724-1.612-1.216
		c3.787-2.266,7.554-3.437,12.675-4.344c-5.254-2.73-8.797-6.053-13.783-6.407c-0.514,0.514-0.985,0.985-1.654,1.654
		c0.435,3.149,0.893,6.466,1.325,9.597c-1.307,1.391-2.403,2.557-3.418,3.637c0.496,0.824,0.789,1.312,1.05,1.746
		c-0.294,0.39-0.533,0.707-0.41,0.544c0.404,0.849,0.675,1.417,0.956,2.007C85.055,79.291,92.338,78.93,98.522,74.865z
		 M62.76,58.002c0.273-3.483-2.48-2.929-3.568-4.267c-0.513,1.191-0.846,1.962-1.21,2.807c0.952,0.127,1.762,0.146,2.516,0.362
		C61.162,57.094,61.763,57.505,62.76,58.002z M71.28,68.02c-0.376,2.391-0.376,2.391,2.157,3.739
		C75.057,69.172,70.668,69.7,71.28,68.02z"/>
	<path d="M201.273,78.661c-0.738,0.849-1.154,1.328-1.694,1.948c0.432,0.601,0.794,1.105,1.166,1.623
		c-0.296,1.458-0.836,2.978-0.873,4.51c-0.116,4.824-0.043,9.652-0.043,14.584c-0.42,0.149-0.855,0.303-1.573,0.558
		c-0.774-1.955-0.339-3.91-0.41-5.791c-0.076-1.995-0.017-3.996-0.017-5.994c0-1.832-0.498-3.86,0.128-5.445
		c0.75-1.899,0.971-3.655,0.718-5.992c-2.13,0.454-4.409-0.856-6.418,1.017c-0.178,0.166-0.646,0.022-0.979,0.022
		c-6.994,0-14.084,0.699-20.95-0.236c-4.917-0.669-9.745-0.544-14.607-0.724c-4.989-0.184-9.991-0.006-14.986-0.058
		c-1.989-0.021-3.753,2.272-5.883,0.54c2.016-1.584,4.916-2.279,11.872-3.165c-0.793-0.154-1.586-0.307-2.755-0.534
		c-0.04-0.743-0.11-1.68-0.134-2.618c-0.025-0.97-0.006-1.942-0.006-2.252c1.123-1.114,1.812-1.797,2.919-2.894
		c0.795,0,2.247,0,4.134,0c0.422-0.684,0.943-1.53,1.536-2.493c0.881,0.602,1.392,0.951,2.034,1.39
		c0.437-0.534,0.949-1.161,1.648-2.014c1.717,0,3.557,0.269,5.272-0.078c1.621-0.327,3.113-1.301,4.888-2.091
		c0.709,0.949,1.4,1.873,2.495,3.338c0.047,0.965-0.281,2.91,0.33,4.493c0.693,1.796-1.3,3.16-0.108,4.679
		c-0.784,0.829-1.453,1.536-2.348,2.482c12.123,0,24.019,0,36.567,0c-1.221-0.683-1.995-1.116-3.14-1.756
		c-9.031,0-18.354,0-27.829,0c-0.3-0.988-0.675-1.997-0.903-3.037c-0.238-1.083-0.874-2.63-0.399-3.219
		c1.852-2.3,0.236-4.844,0.918-6.617c0.775-3.29,3.559-1.432,5.471-2.859c-3.075-2.11-4.241-5.194-4.993-8.372
		c-0.428-1.811-0.594-3.922-0.054-5.639c0.35-1.115,0.548-2.162,0.541-3.248c-0.029-4.832,2.009-8.779,4.908-12.48
		c1.115-1.423,1.745-3.227,2.972-5.579c1.434-0.897,3.481-1.027,6.229-0.161c2.877,0.906,6.261,0.203,9.674,0.203
		c1.628,5.555,3.33,11.167,6.246,17.007c0.019,1.721-0.242,4.137,1.57,6.164c0.663,0.742,1.015,1.983,1.061,3.016
		c0.144,3.232,2.225,5.791,2.846,8.826c0.246,1.204,0.73,2.827,0.181,3.613c-0.797,1.141-0.637,2.174-0.64,3.257
		c-0.01,3.68,0.439,7.427-2.751,11.001c2.325,0,3.907,0,5.75,0c-0.099,0.947-0.158,1.515-0.251,2.405
		C207.508,77.992,204.358,78.943,201.273,78.661z M205.83,73.202c0-0.899,0-1.887,0-2.874c0-3.832,0.602-7.794-0.191-11.454
		c-0.633-2.924-1.755-5.901-2.847-8.78c-1.202-3.167-2.222-6.401-3.448-9.563c-1.272-3.281-1.784-6.875-3.293-10.136
		c-0.568-1.228-0.91-2.561-1.184-3.352c-4.329-0.54-7.981-0.995-12.032-1.5c-0.367,1.171-0.945,2.186-0.962,3.211
		c-0.092,5.496-0.318,11.013,0.034,16.488c0.35,5.443-1.259,10.669-1.167,16.046c-0.47,0.472-0.94,0.944-1.585,1.591
		c-1.619,0-3.41,0-5.033,0c-0.322,2.871-0.623,5.552-0.966,8.609c0.187,0.369,0.606,1.197,1.121,2.214c1.351,0,2.827,0,4.303,0
		c1.499,0,2.999,0,4.498,0s2.999,0,4.498,0c1.666,0,3.458-0.383,4.961,0.112c1.396,0.46,3.031-0.426,3.599,0.024
		c1.4,1.11,2.778,0.787,4.193,0.849c1.457,0.064,2.92,0.014,4,0.014C205.035,73.997,205.388,73.644,205.83,73.202z M166.87,74.683
		c0.299-1.061,1.275-2.775,0.834-3.301c-1.156-1.378-0.637-2.795-0.914-4.174c-0.178-0.883-0.742-1.688-1.044-2.34
		c-1.885,0.557-3.46,1.165-5.092,1.478c-3.821,0.732-6.977,3.449-11.09,3.472c-1.183,0.007-2.376,1.395-3.52,2.211
		c-0.188,0.134-0.149,0.587-0.295,1.267c0.482,0.348,1.136,0.82,1.921,1.386C153.738,74.683,160.053,74.683,166.87,74.683z
		 M179.661,32.427c-0.847,0.324-1.537,0.372-1.671,0.67c-2.877,6.401-3.739,13.134-3.021,20.209c1.516,1.323,1.172,4.258,3.86,5.354
		c0-4.764-0.009-9.223,0.007-13.681c0.003-0.975-0.202-2.094,0.193-2.899C180.564,38.952,179.594,35.833,179.661,32.427z"/>
	<path d="M106.197,36.702c1.094-0.958,1.584-1.387,2.312-2.025c4.84,0.267,10.078-0.748,15.062,1.281
		c6.195,2.522,10.195,5.133,13.281,8.524c-0.029,0.618-0.06,1.259-0.094,1.981c-0.345-0.06-0.723-0.027-0.784-0.151
		c-0.469-0.948-2.605-0.11-2.145-2.009c-3.366-3.111-7.57-4.833-11.693-6.484c-2.428-0.972-5.312-0.893-8.006-1.083
		C111.834,36.574,109.517,36.702,106.197,36.702z"/>
	<path d="M145.654,98.6c-0.962,0-1.746,0-2.418,0c-1.551-1.435,1.054-2.635-0.074-4.328c-0.609-0.914,0.51-2.893,0.637-4.409
		c0.138-1.655,0.031-3.33,0.031-4.996c0-1.637,0-3.273,0-4.91c0.215-0.139,0.431-0.279,0.646-0.418
		c0.14,0.629,0.281,1.258,0.421,1.887c0.252-0.194,0.505-0.388,0.757-0.582C145.654,86.63,145.654,92.416,145.654,98.6z"/>
	<path d="M113.962,50.433c0-0.939,0-1.718,0-2.474c6.652-1.033,12.667,0.001,17.914,4.474c-0.094,0.334-0.218,0.776-0.43,1.528
		c-4.692-2.466-9.349-4.636-14.67-4.236C115.901,49.79,115.049,50.15,113.962,50.433z"/>
	<path d="M68.735,8.872c0,0.62,0,1.069,0,1.689c-1.53,0-2.983,0-3.789,0c-1.805,0.945-3.034,1.587-4.601,2.407
		c-0.387-0.688-0.783-1.392-1.217-2.166c0.854-0.539,2.049-1.292,3.061-1.93C64.455,8.872,66.571,8.872,68.735,8.872z"/>
	<path d="M113.077,61.534c-0.126-0.289-0.244-0.433-0.236-0.569c0.018-0.311,0.097-0.618,0.18-1.094c3.522,0,7.073,0,10.717,0
		c0,0.598,0,1.047,0,1.663C120.116,61.534,116.564,61.534,113.077,61.534z"/>
	<path d="M69.346,14.077c-3.133,1.629-5.763,2.996-8.826,4.588c-0.344-0.288-1.025-0.859-1.822-1.528
		C61.827,15.055,64.738,12.932,69.346,14.077z"/>
	<path d="M71.51,24.348c0.574,1.555,0.995,2.693,1.548,4.191c-1.296,0.061-2.388,0.039-3.456,0.187
		c-0.837,0.116-1.645,0.443-2.559,0.703c-0.333-0.351-0.761-0.802-1.341-1.412C67.723,26.74,69.652,25.521,71.51,24.348z"/>
</g>
</svg>
