<?xml version="1.0" encoding="utf-8"?>
<!-- Generator: Adobe Illustrator 17.0.0, SVG Export Plug-In . SVG Version: 6.00 Build 0)  -->
<!DOCTYPE svg PUBLIC "-//W3C//DTD SVG 1.1//EN" "http://www.w3.org/Graphics/SVG/1.1/DTD/svg11.dtd">
<svg version="1.1" id="Layer_1" xmlns="http://www.w3.org/2000/svg" xmlns:xlink="http://www.w3.org/1999/xlink" x="0px" y="0px"
	 width="256px" height="111px" viewBox="0 0 256 111" enable-background="new 0 0 256 111" xml:space="preserve">
<g>
	<path d="M186.367,37.647c8.081,3.445,8.802,7.235,2.67,13.993c0.905,2.261,1.819,4.545,3.047,7.613
		c0,1.256,0.156,3.436-0.047,5.583c-0.175,1.85-0.759,3.662-1.256,5.911c4.931,0,9.511,0,13.725,0
		c0.705,0.705,1.059,1.059,1.435,1.435c-0.136,0.21-0.264,0.603-0.418,0.614c-0.99,0.07-4.403,0.253-5.179,0.078
		c-0.931-0.209-1.944-0.049-3.091-0.049c0,5.939,0,11.724,0,17.488c0.318,0.617,0.661,1.283,1.184,2.296c-1.317,0-2.211,0-3.304,0
		c0-6.508,0-12.96,0-19.452c-2.806-0.462-49.568,0.288-53.637,0.755c-0.419,0.419-0.891,0.89-1.713,1.713c0,3.1,0.014,6.55-0.031,10
		c-0.003,0.23-0.449,0.454-0.689,0.681c0.497,0.497,0.968,0.968,1.504,1.504c1.277-0.394,2.596-0.8,3.852-1.187
		c0.618,0.659,1.073,1.143,1.701,1.812c-1.904,1.275-3.81,2.55-5.873,3.931c-0.463,1.016-3.071,2.413-3.592,1.761
		c-0.791,0.248-1.759,0.551-3.028,0.949c-1.177-1.555-2.315-3.058-3.21-4.24c-0.332-2.271-0.378-4.239-0.94-6.046
		c-0.899-2.889-2.416-5.29-5.793-6.034c-1.288-0.284-2.4-1.368-3.677-2.138c-2.03,2.587-3.955,5.041-5.902,7.523
		c2.176,2.921,5.375,4.823,7.471,8.386c-2.536,0-4.607,0-7.245,0c-2.924-2.168-5.77-5.227-8.062-9.087
		c0.756-1.681,1.512-3.202,3.634-4.137c1.388-0.611,2.174-2.587,3.383-4.148c-4.18-0.819-6.25-4.14-9.43-6.952
		c-0.241-3.633-0.613-7.634-0.747-11.643c-0.181-5.41,2.268-9.764,6.606-12.638c3.596-2.383,7.444-4.469,11.208-6.625
		c6.916-3.962,14.072-7.625,20.18-12.913c1.633-1.414,3.696-2.331,5.711-3.569c4.515-0.281,8.824,1.12,13.051,3.317
		c1.285,1.678,0.758,4.555,3.348,6.055c0.864-1.208,1.625-2.271,2.868-4.009c0,0.154,0-0.845,0-2.163
		c5.445-0.791,10.934-1.589,16.533-2.403c0.848,1.303,1.62,2.49,2.276,3.499C185.383,29.285,185.854,33.288,186.367,37.647z
		 M144.892,51.824c3.693,0,7.693,0,11.693,0c1,0,2.576,0.395,2.896-0.072c1.154-1.682,1.917,0.424,2.769,0.058
		c2.935-1.262,6.191-1.314,9.106-2.214c2.672-0.824,5.821-1.063,8.136-3.42c0.763-0.776,2.68-2.703,4.524-0.856
		c-2.876,3.611-6.699,5.139-11.209,5.574c-2.263,0.218-4.456,1.17-6.721,1.801c0,2.564,0,4.688,0,7.144
		c-2.011,0.86-3.993,1.708-6.002,2.567c0,1.921,0,3.92,0.001,5.92c0.471,0.471,0.943,0.943,1.021,1.021
		c1.539-0.204,2.741-0.495,3.943-0.502c7.955-0.041,15.911-0.021,23.69-0.021c0.397-3.184,0.751-6.025,1.161-9.307
		c-0.992-2.549-3.451-5.079-2.89-8.518c-0.81-0.174-1.265-0.271-1.879-0.403c0-2.159,0-4.281,0-6.272
		c-2.752-2.023-5.712-1.479-8.81-1.456c-0.873,1.162-1.826,2.43-2.929,3.899c-2.885,0.638-6.067,1.762-9.302,1.943
		c-3.368,0.188-6.777,0.45-10.235-0.464c-3.111-0.823-6.36-1.204-9.118-2.455c-0.633,0.481-0.949,0.721-1.418,1.077
		c-0.535-0.974-0.961-1.75-1.508-2.747c1.656-0.255,2.911-0.448,4.606-0.709c-1.367-0.745-3.105-0.52-2.067-2.356
		c0.301-0.077,0.665-0.304,0.894-0.209c2.134,0.894,4.244,1.844,5.776,2.519c1.811-0.278,3.18-0.488,4.592-0.704
		c1.112-1.063,2.313-2.211,3.459-3.306c0.437-3.422,0.862-6.752,1.287-10.082c-0.751-4.143-4.583-3.965-7.073-5.417
		c-0.506-0.295-1.446,0.068-1.868-0.27c-2.543-2.037-4.522-0.221-6.48,0.951c-1.632,0.977-2.959,2.458-4.575,3.469
		c-6.872,4.3-13.621,8.855-20.79,12.598c-3.354,1.751-6.49,3.745-9.53,5.875c-3.298,2.311-4.902,5.911-4.886,9.898
		c0.013,3.351,0.64,6.699,0.964,9.76c1.951,3.537,4.347,5.653,8.254,6.908c4.191,1.346,8.882,1.8,12.502,4.773
		c0.713,0.585,1.606,1.003,2.18,1.694c1.015,1.223,1.849,2.598,3.151,4.475c0,1.068,0,2.855,0,4.846
		c0.632,0.468,1.222,2.219,0.88,2.627c2.562,0.85,4.797,0.372,6.883-1.044c0.023-0.015-0.085-0.223-0.26-0.663
		c-1.071,0.217-2.202,0.447-3.15,0.64c-0.828-0.663-1.73-1.385-1.81-1.45c-1.139-4.713-2.057-8.506-2.941-12.165
		c-4.045-2.54-9.568-2.76-10.772-8.508c0.722-0.559,1.458-1.128,2.673-2.068c0.181,3.33,1.973,5.081,4.006,6.584
		c3.921,0.175,5.919,2.669,6.781,4.562c0.791,4.417,1.339,7.482,1.916,10.704c0.83-0.304,1.264-0.463,1.5-0.55
		c0-4.291,0-8.411,0-12.504c-1.404-0.151-2.635-0.284-3.992-0.43c0.206-0.784,0.324-1.233,0.527-2.002c2.547,0,5.055,0,8.277,0
		c-2.006-0.943-3.261-1.534-4.499-2.116c-0.134-0.899-0.267-1.79-0.386-2.591c-4.064-0.399-6.557,4.389-10.867,2.489
		c15.634-9.762,12.15-9.355,16.926-16.095c-1.633-0.878-3.274-1.761-4.668-2.511c0.532-0.851,0.959-1.534,1.375-2.2
		C142.195,50.389,143.424,51.043,144.892,51.824z M171.157,45.741c1.832-1.834,13.33-4.827,13.799-6.545
		c-0.588-0.588-1.175-1.175-1.872-1.872c0-2.202,0.165-4.529-0.048-6.821c-0.202-2.171-0.802-4.306-1.277-6.712
		c-1.074,0.051-2.583-0.333-3.217,0.245c-1.373,1.252-2.813,0.69-4.207,0.755c-2.221,0.103-4.516-0.254-6.252,1.638
		c0,1.828,0.405,3.788-0.132,5.441c-0.409,1.259-1.607,6.666-0.983,8.481c0.55,1.6,0.115,3.538,0.115,5.39
		C168.385,45.741,169.362,45.741,171.157,45.741z M161.667,53.995c-5.238,0-10.335,0-15.511,0c0.236,4.046-2.918,5.904-5.018,8.326
		c0.536,0.567,0.991,1.047,1.416,1.497c0.716,0,1.378,0,2.054,0c0.407-0.727,0.815-1.456,1.366-2.44
		c1.11,0.997,1.89,1.697,2.583,2.319c0.65-1.042,1.228-1.968,1.819-2.917c0.957,0.82,1.779,1.524,2.553,2.187
		c1.706-1.171,3.217-1.833,4.78-0.258c0.596-1.278,1.18-2.53,1.759-3.773c1.529-0.118,3.05-0.236,4.534-0.351
		C163.165,56.941,162.468,55.57,161.667,53.995z M158.916,66.767c-2.825-0.73-5.193-3.446-8.357-0.975
		c-0.309,0.241-0.969,0.032-1.466,0.032c-1.657,0-3.328-0.132-4.968,0.038c-1.536,0.159-3.045,0.613-4.548,1.006
		c-0.216,0.057-0.331,0.5-0.674,1.059c0.534,0.613,1.137,1.305,1.711,1.964c5.237-0.382,15.573,0.323,15.678,0.842
		c0.894,0,1.675,0,2.625,0C158.916,69.569,158.916,68.445,158.916,66.767z M163.319,47.425c0.693-1.007,1.148-1.67,1.765-2.566
		c0-1.919-0.057-4.232,0.017-6.541c0.068-2.131-0.564-4.34,0.764-6.213c-0.504-0.504-0.854-0.854-1.408-1.408
		c-0.783,1.295-1.53,2.532-2.229,3.69c0.331,0.448-0.566,1.603-1.016,1.757c0,3.244,0,6.342,0,9.347
		C161.797,46.028,162.268,46.461,163.319,47.425z M109.142,83.827c2.318,2.607,4.149,5.065,6.825,7.178c0-1.227,0-2.012,0-2.674
		c-0.989-0.602-1.923-1.17-2.646-1.61c-0.851-3.619,0.398-6.218,2.788-8.488c0.533-0.506,0.651-1.45,0.959-2.193
		c-0.236-0.153-0.472-0.305-0.708-0.458c-2.327,2.383-4.655,4.767-7.218,7.392C109.142,83.141,109.142,83.791,109.142,83.827z
		 M186.918,39.431c-1.997,2.28,0.318,3.409,0.197,4.963c-0.137,1.766-0.032,3.55-0.032,5.98c1.305-0.858,2.389-1.177,2.702-1.854
		c0.768-1.656,1.972-3.32,1.081-5.505C189.673,41.933,188.372,40.751,186.918,39.431z M158.873,43.763
		c-2.168,0.067-2.594,1.744-4.322,2.874c1.992,0,3.202,0,4.591,0C159.039,45.543,158.958,44.669,158.873,43.763z M151.084,45.074
		c0,0.167,0,0.333,0,0.5c0.667,0,1.333,0,2,0c0-0.167,0-0.333,0-0.5C152.417,45.074,151.75,45.074,151.084,45.074z"/>
	<path d="M88.093,78.815c0.041,0.596,0.124,1.817,0.25,3.652c3.791-2.75,7.076-5.132,10.365-7.518
		c0.331,0.331,0.684,0.684,1.097,1.097c-0.025,0.181,0.031,0.533-0.1,0.628c-3.443,2.502-6.906,4.977-10.578,7.609
		c2.295,3.176,7.842,2.487,9.201,7.6c-0.967-0.176-1.62-0.118-2.044-0.402c-2.342-1.568-4.627-3.219-6.316-4.408
		c-2.235,0.316-3.794,0.802-5.314,0.702c-4.523-0.299-8.577,0.537-11.927,3.834c-0.284,0.28-1.083,0.037-2.633,0.037
		c1.576-1.725,2.342-3.164,3.524-3.726c2.069-0.982,4.38-1.909,6.614-1.972c2.783-0.078,5.302-0.767,8.098-1.596
		c-0.586-1.228-1.115-2.336-1.695-3.549c-0.429,0.093-1.072,0.036-1.281,0.31c-1.25,1.639-2.815,2.202-4.67,1.554
		c-3.588-2.33-7.155-4.646-10.563-6.859c0-1.728,0-3.048,0-4.467c0.601-0.634,1.268-1.338,1.939-2.046
		c-0.838-0.43-1.665-0.855-2.876-1.477c-2.074-0.081-4.738,0.487-7.024-1.443c0-1.537,0-3.179,0-5.205
		c0.653-0.501,1.567-1.202,3.099-2.377c3.118-0.189,6.025,1.862,8.884,4.511c0,1.357,0,2.807,0,4.411
		c0.792,0.056,1.424,0.101,2.312,0.163c2.245-2.546,4.525-5.242,6.946-7.805c0.701-0.742,1.806-1.103,2.632-1.584
		c3.538,4.441,6.786,8.518,9.966,12.51C94.763,75.047,90.843,75.89,88.093,78.815z M93.154,71.254
		c-3.584-2.554-4.439-7.166-8.104-9.721c-3.537,2.601-4.592,7.284-8.174,9.019c-1.264-0.345-2.284-0.623-3.288-0.897
		c-0.46,1.41-0.839,2.572-1.286,3.942c1.473,2.185,3.882,3.873,6.173,4.215c1.23,1.126,2.404,2.202,3.592,3.29
		c2.021-1.568,3.853-2.836,5.503-4.31C89.422,75.138,91.108,73.299,93.154,71.254z M72.327,65.241
		c-1.822-2.235-1.822-2.235-6.575-4.417c-2.156,2.449-2.156,2.449-0.157,5c1.385,0.136,2.968-0.549,3.926,0.845
		C70.365,66.24,71.185,65.822,72.327,65.241z"/>
	<path d="M120.835,15.927c1.385,0,2.169,0,3.145,0c0.461,2.525,0.91,4.985,1.29,7.064c-1.601,2.59-2.921,4.724-4.582,7.411
		c-0.497-1.026-0.773-1.594-0.896-1.847C120.522,27.825,122.73,19.205,120.835,15.927z"/>
	<path d="M129.855,19.987c0.233,1.549,0.437,2.906,0.759,5.047c-0.982,1.227-2.508,3.133-4.041,5.048
		c-0.74-0.356-1.138-0.547-1.961-0.943c1.171-1.346,2.197-2.526,3.566-4.101c-0.259-1.384-0.592-3.162-0.946-5.051
		C128.027,19.987,128.798,19.987,129.855,19.987z"/>
	<path d="M57.554,78.026c-1.304-1.738-2.508-3.342-3.969-5.289c-0.975,0-2.204,0-3.411,0c-0.048-0.664-0.071-0.985-0.114-1.597
		c2.343-0.748,4.551-0.443,6.806,1.216C57.363,73.839,58.974,75.534,57.554,78.026z"/>
	<path d="M96.174,50.234c0.468-0.468,0.924-0.949,1.414-1.392c0.091-0.082,0.319-0.012,0.502-0.012
		c0.265,0.106,0.683,0.137,0.813,0.347c1.823,2.952,1.003,6.194,1.253,9.934c-1.213-0.531-1.98-0.867-3.038-1.33
		C99.136,54.862,97.724,52.536,96.174,50.234z"/>
	<path d="M90.915,51.149c1.613,1.82,2.698,3.044,4.034,4.551c0.275,0.842,0.703,2.157,1.155,3.543
		c-0.415,0.442-0.858,0.913-1.651,1.756c-0.21-0.625-0.411-1.223-0.765-2.277c-0.319,0.44-2.221-4.303-4.523-5.142
		C89.696,52.841,90.155,52.204,90.915,51.149z"/>
	<path d="M54.858,63.914c-1.007-0.106-1.217-0.064-1.316-0.15c-0.375-0.326-0.713-0.694-1.305-1.285
		c0.573-1.009,1.465-2.064,1.775-3.269c0.319-1.238,0.071-2.622,0.071-4.275c0.941-0.044,1.841-0.087,3.335-0.157
		C56.485,58.109,55.671,61.014,54.858,63.914z"/>
	<path d="M199.708,40.612c0.778,0.493,1.556,0.987,2.406,1.526c-0.192,2.789,0.689,5.761-2.536,8.321
		c-0.235-1.25-0.719-2.19-0.436-2.594c1.579-2.261,0.927-4.437-0.255-6.664C199.161,41.004,199.434,40.808,199.708,40.612z"/>
	<path d="M196.185,43.509c-0.483-0.582-0.863-0.92-1.074-1.342c-0.121-0.243,0.034-0.623,0.077-1.075
		c0.408-0.107,0.855-0.224,1.524-0.4c0.309,1.572,0.602,3.056,0.94,4.777c-0.214,0.807-0.518,1.954-0.856,3.229
		c-0.74,0-1.522,0-2.411,0c0.232-0.786,0.436-1.587,0.706-2.366C195.392,45.463,195.753,44.615,196.185,43.509z"/>
	<path d="M59.403,72.859c-0.173-0.913-0.345-1.827-0.477-2.522c-0.784-0.589-1.434-1.077-2.843-2.136
		c1.836-0.219,2.715-0.323,3.739-0.445c0.757,1.272,1.467,2.464,1.752,2.942c-0.388,1.012-0.695,1.813-1.003,2.615
		C60.182,73.161,59.792,73.01,59.403,72.859z"/>
	<path d="M153.245,39.994c0.781-2.921,1.455-5.441,2.157-8.065c0.421,0,0.87,0,1.709,0c-0.122,1.277-0.167,2.513-0.377,3.72
		c-0.213,1.23-0.589,2.431-0.985,4.008c-0.506,0.506-1.326,1.326-2.01,2.01c-1.587,0-3.037,0-4.564,0c0-0.606,0-1.055,0-1.674
		C150.353,39.994,151.461,39.994,153.245,39.994z"/>
	<path d="M147.307,33.613c-1.365-0.95-2.426-1.687-3.745-2.605c0.784-0.869,1.296-1.437,2.15-2.385
		c0.356,0.966,0.693,1.882,0.799,2.171c2.341-0.103,3.862,0.603,5.026-0.944c0.451,0.418,0.894,0.828,1.368,1.267
		c-0.099,0.229-0.134,0.558-0.305,0.661c-0.648,0.389-1.311,0.8-2.024,1.025C149.42,33.168,148.22,33.393,147.307,33.613z"/>
</g>
</svg>
