<?xml version="1.0" encoding="utf-8"?>
<!-- Generator: Adobe Illustrator 17.0.0, SVG Export Plug-In . SVG Version: 6.00 Build 0)  -->
<!DOCTYPE svg PUBLIC "-//W3C//DTD SVG 1.1//EN" "http://www.w3.org/Graphics/SVG/1.1/DTD/svg11.dtd">
<svg version="1.1" id="Layer_1" xmlns="http://www.w3.org/2000/svg" xmlns:xlink="http://www.w3.org/1999/xlink" x="0px" y="0px"
	 width="256px" height="111px" viewBox="0 0 256 111" enable-background="new 0 0 256 111" xml:space="preserve">
<g>
	<g>
		<path d="M32.385,64.433c-2.502,1.632-1.012,3.947-1.86,5.782c-0.39,0.04-0.842,0.086-1.297,0.133
			c-1.724-4.303,1.439-8.297,0.48-12.53c0.796-0.59,1.546-1.146,2.797-2.073c0.174,2.129,0.301,3.679,0.443,5.407
			c0.683,0.434,1.461,0.928,2.794,1.775c-0.445-1.428-0.813-2.191-0.898-2.984c-0.12-1.113-0.03-2.249-0.03-3.478
			c0.742,0,1.193,0,1.822,0c0,2.811,0,5.598,0,8.163c2.243,2.794,5.039,3.659,8.211,3.744c2.615,0.07,5.394-0.279,7.795,0.499
			c2.671,0.866,5.196,0.004,7.616,0.546c0.603-0.603,1.074-1.074,1.402-1.402c0.648-2.14-0.389-4.168,0.983-6.327
			c0.902-1.419,0.171-3.877,0.171-5.636c2.677-4.075,6.683-6.221,10.192-8.438c2.974-0.447,5.652-1.165,8.33-1.164
			c2.675,0.001,5.35,0.722,6.903,0.957c3.496,1.225,5.954,2.113,8.435,2.933c0.45,0.149,1.139-0.184,1.47,0.052
			c4.603,3.283,10.686,3.305,15.152,6.893c0.3,0.241,0.962,0.031,1.508,0.031c1.01-0.849,1.926-2.205,2.989-4.493
			c1.519-0.41,3.116-0.841,4.714-1.272c1.131,1.824,3.207,0.621,4.873,1.576c2.995,1.717,4.586,4.672,7.213,6.405
			c0.608,1.581-0.532,3.567,1.484,4.546c3.687-0.861,7.064-3.137,11.146-2.714c0.545,0.532,1.115,1.088,1.637,1.597
			c-0.995,3.128-2.391,6.099-1.985,9.292c0.451,3.541-1.863,6.326-2.215,9.64c-0.096,0.9-1.535,1.657-2.352,2.474
			c-1.682,0-3.345,0-5.485,0c0.2,1.08,0.203,2.155,0.605,3.051c0.946,2.11,2.102,4.125,3.132,6.199
			c0.408,0.821,0.359,0.845-0.949,3.222c-1.109-2.258-1.595-4.957-3.194-6.101c-2.437-1.743-0.462-5.073-3.817-6.685
			c-4.694,0-20.322-1.832-22.206,0.057c-0.598,0.599-2.201,0.239-3.344,0.241c-7.494,0.014-14.997,0.223-22.48-0.073
			c-4.521-0.179-8.997-1.308-13.579-0.929c-1.629,0.135-3.671-0.419-4.807,0.372c-1.723,1.2-2.465-1.613-3.883-0.393
			c-0.55,0.473-6.75-0.327-9.077,0.206c-3.368,0.771-30.195,0.137-34.888-0.172c-0.332-0.022-0.666-0.003-1.18-0.003
			c-0.694,3.751-3.174,6.429-5.483,8.646c-0.73-0.394-1.459-0.787-2.223-1.199c1.99-2.558,3.701-4.757,5.699-7.324
			c-1.649,0-2.767,0-4.251,0c0.265-4.116-2.921-8.037,0.15-12.123c3.623,0,7.228-0.586,10.559,0.121
			c7.199,1.529,14.406,0.671,21.596,0.72c1.387,0.009,7.193,1.017,8.751,1.132c1.656,0.122,3.333-0.039,4.992,0.067
			c0.523,0.033,1.017,0.527,1.65,0.881c0.469-0.772,0.941-1.547,1.378-2.265c-0.336-0.336-0.448-0.55-0.573-0.558
			c-5.678-0.377-11.355-0.925-17.038-1.025c-3.412-0.06-5.237-2.695-7.874-3.971C33.633,66.051,33.047,65.095,32.385,64.433z
			 M64.843,72.832c3.379-0.592,5.88-1.348,8.393-1.395c3.698-0.069,7.385-0.364,11.122,0.784c2.435,0.749,5.321,0.406,7.943,0.068
			c2.703-0.349,4.982,1.175,7.592,1.107c4.661-0.121,9.327-0.032,13.992-0.036c0.826-0.001,1.763,0.221,2.461-0.086
			c5.653-2.491,11.573-4.479,16.237-8.154c1.137-4.004-2.18-5.926-3.159-8.291c-3.019-2.085-5.974-3.077-9.558-2.226
			c-0.943,1.562-1.684,3.654-3.131,4.967c-1.781,1.617,0.434,4.81-2.597,5.61c-2.252-1.339-0.909-3.616-1.327-5.094
			c-0.966-1.077-1.739-1.939-2.417-2.694c-0.832-0.037-1.57,0.12-2.132-0.126c-3.675-1.609-7.293-3.336-11.246-4.227
			c-2.562-0.578-4.84-1.968-7.34-2.806c-2.55-0.854-5.279-0.488-7.772-1.749c-1.048-0.53-2.811,0.133-4.18,0.509
			c-2.389,0.655-10.155,5.734-11.722,6.686c-0.71,4.03-1.359,7.715-2.004,11.377c0.163,0.119,0.296,0.301,0.418,0.294
			c8.683-0.53,17.414,0.989,26.093-0.89c2.849-0.617,5.944-0.097,8.634-0.097c0.715,0.616,1.209,1.042,1.69,1.456
			c-1.04,1.331-2.313,2.305-3.772,1.184c-1.103-0.847-2.459-0.988-3.202-0.551c-2.648,1.557-5.429,0.793-8.135,0.874
			c-4.494,0.134-8.995-0.025-13.491,0.078c-1.209,0.028-2.407,0.555-3.746,0.886c-3.365-1.522-4.827-1.273-7.398,1.298
			c-0.342,1.224-0.661,2.364-1.015,3.629c0.731,0,1.515,0,2.386,0C63.316,74.359,64.258,73.417,64.843,72.832z M145.652,63.7
			c-1.323,0.282-2.215,0.641-3.103,0.63c-3.087-0.038-5.574,2.008-8.54,2.335c-3.368,3.173-7.858,4.396-11.791,6.563
			c-2.651,1.461-5.805,2.09-9.088,2.238c-9.241,0.418-18.368-1.168-27.573-1.139c-1.389,0.004-3.016,0.667-4.13-0.853
			c-3.482-0.038-7.072-0.606-10.409,0.071c-2.258,0.458-4.855,0.643-6.924,2.679c-1.324,1.302-3.947,1.284-6.055,1.877
			c-0.85-0.856-1.789-1.801-2.722-2.741c-3.842,0-7.775,0.542-11.476-0.152c-3.727-0.699-7.388-0.825-11.107-0.844
			c-3.831-0.019-7.662-0.004-11.493-0.004c-0.999,0-2.01,0.097-2.996-0.022c-1.69-0.204-3.364-0.542-5.071-0.829
			c-2.139,2.912-2.027,3.715,1.137,7.851c25.644,0,51.294-0.005,76.943,0.013c1.456,0.001,3.118-0.217,4.323,0.388
			c2.105,1.056,4.275,0.786,6.229,0.446c1.504-0.262,3.136-1.416,4.531-0.682c1.787,0.942,3.117-0.58,4.762-0.237
			c1.596,0.333,3.323-0.021,4.98,0.104c1.172,0.088,2.81,1.071,3.388,0.603c1.499-1.214,2.073,0.993,3.405,0.461
			c1.149-0.459,2.646,0.048,3.956-0.125c2.846-0.375,5.887,1.08,8.555-0.901c2.159,1.964,4.718,0.424,7.313,1.087
			c0.739-3.243,1.864-6.251,1.985-9.3c0.105-2.621,0.85-5.015,1.314-7.507c0.065-0.352,0.485-0.639,0.729-0.94
			C146.245,64.294,145.892,63.94,145.652,63.7z"/>
		<path d="M220.368,22.703c1.841,1.056,2.849,1.634,3.836,2.201c-0.707,1.786-1.217,3.074-1.718,4.338c-0.845,0-1.629,0-3.058,0
			c0.83-1.367,1.435-2.364,2.153-3.549c-2.08-2.867-5.327-2.299-8.373-2.327c-1.026,2.289-1.944,4.433-5.252,3.881
			c-0.078-1.451-0.163-3.029-0.278-5.18c-0.829,0.525-1.412,0.785-1.853,1.197c-0.968,0.905-1.863,1.888-2.955,3.012
			c0.577,3.547,2.27,4.66,8.871,5.511c0.027,0.323,0.051,0.646,0.085,1.094c-2.53,1.461-4.867-0.262-7.597-0.655
			c-1.259,5.811-4.062,10.886-7.371,15.681c0.417,0.417,0.736,1.031,1.129,1.082c3.138,0.409,6.11,2.071,8.47,1.486
			c3.099-1.288,4.695-2.776,5.923-5.025c1.409-2.579,3.527-4.75,4.563-7.622c0.264-0.733,1.406-1.149,2.153-1.717
			c0.358,0.501,0.744,0.902,0.686,0.982c-1.744,2.412-2.642,5.323-4.695,7.584c-1.231,1.355-1.99,3.139-3.199,5.121
			c-1.26,0.649-2.916,1.501-4.834,2.489c-3.779,0.648-7.468-0.64-11.157-2.278c-2.54-1.128-5.227-1.884-7.552-3.521
			c-0.525-0.37-1.532-0.054-2.731-0.054c0.874,2.506,1.349,4.79,4.177,5.373c0,1.01,0,2.004,0,3.017
			c-1.597,1.998-3.935,3.407-5.538,6.297c2.397,0.138,4.28,0.246,6.31,0.363c0.101,0.41,0.211,0.861,0.369,1.505
			c-3.019,0.38-5.962,0.75-9.007,1.133c-0.363,4.124,0.378,7.307,3.096,10.053c1.174,1.185,2.006,2.796,1.823,4.729
			c-0.156,1.648-0.032,3.322-0.032,4.955c-3.023,3.181-6.731,5.201-11.103,6.332c0.903,1.784,1.57,3.104,2.388,4.721
			c-1.813,0.381-3.424,0.72-5.458,1.148c-4.723-1.178-9.944-1.192-15.553,0.24c-0.101-0.76-0.217-1.634-0.364-2.733
			c2.61,0,5.059,0,7.586,0c1.083-1.153,2.397-2.09,3.051-3.366c0.776-1.511,2.555-3.02,0.775-5.135
			c-0.51-0.607-0.304-1.873-0.311-2.837c-0.028-3.998-0.012-7.996-0.012-11.554c1.124-2.133,2.579-3.829,2.89-5.712
			c0.601-3.646,2.164-6.204,5.603-7.649c0.679-0.285,1.141-1.086,1.635-1.581c-3.018-6.135-8.387-9.641-13.24-13.783
			c1.884-1.849,4.217-2.097,6.479-2.611c2.26-0.513,4.475-1.223,6.423-1.767c1.394,1.394,2.78,2.781,4.048,4.048
			c4.014-2.374,4.014-2.374,6.524-8.119c0.314-0.046,0.627-0.119,0.942-0.126c0.135-0.003,0.274,0.13,0.629,0.315
			c-0.136,2.961-2.862,4.612-3.644,6.932c0.337,1.139,0.64,2.165,1.058,3.579c3.154-0.773,4.755,3.456,7.908,3.225
			c1.127-1.785,2.156-3.34,3.11-4.94c1.844-3.094,2.728-6.551,3.606-9.995c0.199-0.782,0.372-1.935-0.035-2.439
			c-1.177-1.458-1.273-2.935-0.601-4.497c1.106-2.57,1.489-5.589,4.51-7.278c0.669,0.159,1.573,0.374,2.675,0.636
			c0.344-0.939,2.493,0.185,2.689-2.062c0.075-0.859,2.214-1.537,3.332-2.246c1.54-0.353,3.066-0.703,4.811-1.103
			c2.713,1.502,6.328,2.37,7.517,7.115c0.011,4.714,3.473,9.807,2.267,15.806c2.623-4.59,6.446-7.018,11.217-8.039
			c1.521-0.326,4.356,0.816,6.386,2.255c-2.113,3.946-4.014,8.002-6.399,11.751c-1.328,2.087-0.987,4.505-2.239,6.606
			c-1.152,1.933-1.436,4.384-2.104,6.606c-0.844,2.808-1.712,5.589-2.946,8.277c-1.414,3.079-2.512,6.303-3.796,8.347
			c-5.76,4.898-11.997,4.12-18.373,4.136c0.168,2.43,0.316,4.569,0.477,6.903c0.034-0.007-0.422,0.087-1.003,0.206
			c-0.366,2.372-0.748,4.85-1.198,7.763c3.481,2.143,8.12,2.536,11.847,4.579c0.017,2.114-1.442,1.745-2.108,1.481
			c-1.862-0.737-3.596-1.796-5.77-2.932c-1.533,0-3.559,0.244-5.498-0.061c-2.538-0.399-5.042,0.341-6.992,1.27
			c-2.059,0.98-3.692,0.409-5.559,0.431c3.416-2.397,7.331-3.102,11.677-3.891c0.333-0.94,0.906-2.196,1.21-3.514
			c0.322-1.392,0.631-2.867,0.495-4.262c-0.125-1.275,0.42-2.32,0.537-3.483c0.139-1.392-0.536-2.971,1.029-4.11
			c-0.691-0.477-1.387-1.369-1.993-1.312c-6.588,0.619-12.974-2.148-19.317-0.878c-1.562-1.392-1.973-2.395-1.194-4.394
			c1.348-3.454,4.202-4.067,7.048-4.723c1.74-0.401,3.664-0.229,5.477-0.043c4.102,0.421,7.947-0.597,11.643-2.094
			c1.852-0.75,3.43-2.169,5.145-3.265c0.514-0.329,1.071-0.59,1.985-1.087c0.283-0.725,0.454-2.125,1.23-2.97
			c2.219-2.42,2.752-5.54,3.965-8.379c0.303-0.709,0.902-1.29,1.219-1.995c0.827-1.843,1.799-3.637,1.776-5.766
			c-0.042-3.996-0.012-7.992-0.012-11.976c-2.131-1.965-2.102-4.557-2.026-6.15c-1.239-3.843-3.388-5.531-6.388-6.382
			c-1.248,0.398-2.573,0.82-3.66,1.167c-1.127,0.891-2.144,1.696-3.026,2.393c0.184,0.635,0.176,1.078,0.372,1.207
			c1.174,0.766,2.395,1.46,3.641,2.203C217.531,20.983,219.422,23.193,220.368,22.703z M189.556,72.362
			c2.775,0,5.36-0.67,7.305,0.16c2.779,1.185,5.453,0.538,8.151,0.842c2.862,0.323,5.718,0.711,8.585,0.977
			c1.322,0.122,2.719-0.213,3.981,0.086c1.266,0.3,2.22-0.477,3.328-0.608c3.088-0.366,6.305-1.017,7.638-4.654
			c1.377-3.758,3.077-7.386,4.443-11.164c0.825-2.282,1.152-4.744,2.383-7.028c1.088-2.019,1.169-4.768,2.665-6.768
			c-0.516-0.582-0.838-0.946-1.158-1.308c2.197-1.384,5.935-8.232,5.935-10.98c-0.406-0.429-0.855-0.904-1.383-1.462
			c-1.381,0-2.833,0-4.209,0c-1.37,1.37-2.745,2.598-3.941,3.981c-1.245,1.44-2.986,2.891-3.335,4.58
			c-0.878,4.245-3.651,7.506-5.146,11.392c-0.995,2.585-1.651,5.502-3.32,7.575c-2.209,2.743-4.983,5.304-8.035,7.013
			c-2.618,1.467-5.938,1.833-9.006,2.297c-2.28,0.345-4.67-0.098-6.983,0.116c-2.175,0.201-4.314,0.802-6.941,1.32
			C190.256,69.705,189.955,70.847,189.556,72.362z M188.188,54.456c-1.533-3.637-4.666-6.251-6.425-9.722
			c-0.844-1.665-2.22-3.061-3.161-4.32c-3.734-0.211-6.961-0.096-10.288,1.916c0.783,0.796,1.249,1.698,1.893,1.849
			c2.482,0.586,3.889,2.616,5.06,4.36c1.284,1.913,3.033,3.326,4.297,5.15c1.323,1.909,3.04,3.262,4.593,4.332
			C185.442,56.884,186.668,55.8,188.188,54.456z M172.813,67.709c3.126,4.546,6.066,8.823,9.147,13.304c0,1.277,0,2.733,0,4.199
			c0.972-0.895,1.84-1.694,2.642-2.433c-0.202-0.391-0.639-0.989-0.545-1.09c1.753-1.871,0.71-3.596-0.256-5.278
			c-1.313-2.289-2.712-4.528-3.887-6.478c0-2.003,0-3.64,0-6.197c0.678-0.556,1.807-1.482,3.063-2.512
			c-0.946-1.388-1.872-2.749-3.095-4.543c-2.68,2.252-4.985,4.189-7.07,5.94C172.813,64.57,172.813,66.069,172.813,67.709z
			 M168.025,93.025c1.256,0.415,2.57,0.849,3.982,1.316c0.931-0.505,1.957-1.062,2.866-1.555c-0.426-1.383-1.339-2.849-0.959-3.368
			c1.852-2.531-0.153-5.828,1.845-8.259c0.129-0.157-0.518-0.952-0.722-1.308c0.708-0.952,1.361-1.83,1.754-2.358
			c-1.975-2.956-3.708-5.549-5.451-8.159c-0.556,0.556-1.026,1.026-1.528,1.528c0,1.957-0.127,3.956,0.028,5.932
			c0.275,3.52-0.92,7.165,0.925,10.576c0.233,0.431-0.03,1.292-0.318,1.812C169.714,90.511,168.835,91.76,168.025,93.025z
			 M178.397,79.495c-3.076,1.331-0.29,4.795-2.431,6.305c0.44,0.861,0.854,1.673,1.206,2.361c0.931-0.785,1.894-1.596,2.873-2.422
			C179.313,83.583,180.806,81.205,178.397,79.495z M208.813,19.978c0,1.314-0.042,2.089,0.011,2.858
			c0.059,0.861,0.205,1.715,0.332,2.729c1.624-0.559,2.661-1.067,2.677-2.679C211.849,21.274,210.8,20.764,208.813,19.978z
			 M184.403,44.072c0.316-1.51,0.316-1.51-2.11-1.317C183.294,43.38,183.91,43.764,184.403,44.072z"/>
		<path d="M223.453,42.757c-2.588,3.07-4.197,6.062-5.846,9.051c-1.597,2.894-4.547,5.198-8.449,4.515
			c-2.253-0.394-4.44,1.398-6.657,0.038c-4.1,0.683-6.791-2.997-10.555-3.47c-0.496-0.062-0.835-1.379-0.653-2.733
			c2.705,1.341,5.41,2.681,8.541,4.233c1.827,0.423,4.367-0.888,6.606,0.905c0.407,0.326,1.507-0.167,2.272-0.345
			c1.071-0.249,2.129-0.557,4.085-1.076c3.111-1.799,4.536-6.07,7.016-9.511c0.462-0.642,0.84-1.406,1.447-1.856
			C221.579,42.273,222.312,42.602,223.453,42.757z"/>
		<path d="M190.926,56.067c4.319,1.316,1.806,5.102,4.366,6.663c-0.855,0.364-1.273,0.542-2.123,0.904
			C193.034,60.957,191.055,59.019,190.926,56.067z"/>
		<path d="M123.816,61.454c-1.073-0.574-2.106-1.126-3.075-1.644c0.147-0.578,0.125-1.026,0.314-1.15
			c1.036-0.675,2.123-1.27,3.495-2.069c0.695,0.744,1.607,1.719,2.783,2.978C125.931,60.321,124.912,60.867,123.816,61.454z"/>
	</g>
</g>
</svg>
