<?xml version="1.0" encoding="utf-8"?>
<!-- Generator: Adobe Illustrator 17.0.0, SVG Export Plug-In . SVG Version: 6.00 Build 0)  -->
<!DOCTYPE svg PUBLIC "-//W3C//DTD SVG 1.1//EN" "http://www.w3.org/Graphics/SVG/1.1/DTD/svg11.dtd">
<svg version="1.1" id="Layer_1" xmlns="http://www.w3.org/2000/svg" xmlns:xlink="http://www.w3.org/1999/xlink" x="0px" y="0px"
	 width="256px" height="111px" viewBox="0 0 256 111" enable-background="new 0 0 256 111" xml:space="preserve">
<g>
	<path d="M220.974,95.596c-0.333,0.264-1.147,2.949-1.258,4.583c-1.252-0.884-2.014-1.422-2.744-1.938
		c0.353-1.472,0.839-2.813,0.962-4.187c0.162-1.817,0.022-3.66,0.044-5.491c0.036-3.057-0.41-6.169,1.453-9.405
		c-0.902-0.344-1.712-0.652-2.522-0.961c-5.157-1.115-11.165,0.697-16.773-2.641c-2.334,1.61-5.157,1.366-7.8,0.819
		c-4.525-0.937-7.831-1.056-12.78,0.096c-1.1,0.256-2.298,0.117-3.451,0.119c-4.296,0.01-8.592,0.004-12.631,0.004
		c-0.605,0.605-0.958,0.958-1.481,1.481c0,6.275,0,12.724,0,19.235c-0.872,0.531-1.648,1.004-3.002,1.828
		c0.357-4.915-0.621-9.148,0.829-13.548c0.842-2.553,0.153-5.61,0.153-8.756c-1.505-0.238-2.841-0.695-4.432,0.554
		c-1.113,0.874,7.936-1.314,9.712-1.895c4.846-1.583,9.747-0.553,14.603-0.908c0.301-0.022,0.592-0.171,0.99-0.291
		c0.026-0.415,0.055-0.867,0.108-1.7c-2.537,0-5.007-0.181-7.435,0.056c-2.063,0.201-7.116,0.79-7.697,1.167
		c-0.618-0.553-1.095-0.98-1.702-1.523c0-1.681,0-3.466,0-5.123c1.226-1.509,2.423-2.984,3.851-4.742
		c0.432,0.573,0.922,1.22,1.593,2.11c0.631-0.908,1.288-1.854,2.107-3.031c0.507,0.251,1.174,0.582,1.839,0.911
		c0.501-1.195,2.526-1.935,2.713-0.717c1.677-0.581,3.211-1.251,4.814-1.626c1.522-0.356,3.116-0.403,4.55-0.571
		c1.085,2.612,0.686,11.665,0.323,13.704c2.105,0.8,4.055,0.991,5.935,1.305c2.106,0.351,4.324-0.039,6.478,0.108
		c3.365,0.229,6.712,0.774,10.079,0.935c3.488,0.167,6.993-0.017,10.486,0.083c0.703,0.02,4.281,0.673,4.976,1.006
		c-4.434,2.512-2.891,5.282-2.891,7.948c-0.333,0.252-0.333,1.585,0,2C220.974,87.262,220.974,94.596,220.974,95.596z
		 M167.541,71.887c2.887-0.435,5.718-1.112,8.569-1.217c2.529-0.093,5.081,0.448,7.637,0.711c0-3.285,0-6.517,0-9.785
		c-0.72,0-1.256-0.13-1.698,0.02c-4.81,1.63-9.54,3.484-14.387,5.018C165.646,67.272,165.576,68.739,167.541,71.887z"/>
	<path d="M114.316,95.438c-0.548-0.548-0.901-0.901-1.382-1.382c0.458-3.052-0.52-6.247,0.909-9.476
		c0.74-1.671,0.557-4.063,0.027-5.91c-0.747-2.602-1.325-5.608-4.74-6.474c-1.018-0.258-3.212-4.283-3.143-5.561
		c0.08-1.481-0.063-2.899-1.024-4.077c-1.627-1.994-0.711-4.372-1.082-6.551c-2.528-2.755-5.467-4.59-9.211-5.57
		c-2.008-0.526-4.623-1.695-4.794-4.703c0.983-2.31,3.094-3.089,5.022-4.159c3.525-1.955,13.27-8.812,14.829-9.9
		c1.965-1.372,1.971-3.154,2.331-5.139c0.38-2.091,1.439-4.06,2.489-6.846c3.168-3.652,5.876-9.067,11.845-11.094
		c1.988,0,3.99-0.142,5.96,0.043c1.705,0.16,3.375,0.693,5.277,1.108c0.997,1.011,2.164,2.194,2.89,2.931
		c1.54,4.79,2.913,9.057,4.392,13.657c-1.438,0.122-2.987,0.252-4.585,0.388c-0.507,1.754-1.024,3.541-1.511,5.226
		c1.106,0.726,2.194,1.172,2.897,1.961c1.147,1.287,2.419,2.503,3.258,4.044c1.154,2.12,0.762,5.545-1.11,7.179
		c-1.388,1.211-3.107,2.043-4.897,3.184c0.577,5.209-0.657,10.54-2.851,15.446c-1.6,3.576-4.331,6.725-8.638,7.905
		c-1.237,1.033-0.72,2.675-1.117,4.05c-0.474,1.638-0.949,3.276-1.367,4.929c-0.118,0.468,0.059,1.012-0.063,1.478
		c-1.039,3.976-1.05,3.973,0.197,7.123c4.729,2.056,15.408,2.735,7.069,5.412c-0.127,0.616-0.22,1.072-0.398,1.938
		c-2.842,0-5.799,0.147-8.736-0.042C120.194,96.369,117.35,95.84,114.316,95.438z M91.688,46.384
		c1.996,1.232,3.498,2.476,5.222,3.166c5.923,2.372,8.122,4.041,9.643,8.927c0.327-0.268,0.664-0.542,1.161-0.949
		c0.99,4.401-1.037,9.015,1.667,12.976c0.788,0.076,2.05,0.617,1.893,0.812c1.208,1.096,4.164,4.991,4.699,6.414
		c0,2.194,0.281,5.06-0.081,7.843c-0.344,2.647-1.582,5.19-0.525,8.023c1.322,0,2.642,0.024,3.96-0.026
		c0.193-0.007,0.373-0.366,0.558-0.562c-0.603-0.603-1.192-1.192-1.805-1.805c0-5.424,0-10.872,0-16.209
		c1.598-1.649,1.67-1.489,4.144-2.424c5.343-2.02,9.758-5.248,12.655-10.422c0.391-1.746,2.221-17.323,1.678-20.36
		c-0.632-3.536-0.453-5.844,0.228-9.845c0.288-1.694,2.517-3.364,0.381-5.686c-1.687,0.786-3.5,1.63-5.115,2.382
		c0.412,1.134,0.694,1.907,1.114,3.063c-2.87-1.137-2.87-1.137-3.057-3.887c3.352-3.015,8.051-2.037,11.875-3.749
		c-0.51-2.436-1.754-4.613-2.115-7.15c-0.328-2.303-1.508-4.482-4.127-5.338c-1.458-0.476-2.85-1.154-4.284-1.746
		c-0.574,0.223-1.315,0.802-1.966,0.715c-3.806-0.509-6.685,1.794-8.745,4.06c-3.309,3.639-5.522,8.274-6.65,13.136
		c-0.397,1.713-0.86,3.301-1.583,4.802c-1.998,0.052-2.862,1.719-3.801,2.915c-2.788,3.548-7.429,4.209-10.568,7.138
		C95.396,42.45,93.766,44.293,91.688,46.384z M132.873,91.77c-2.487,0-4.94,0-7.295,0c-2.715-2.912-5.305-5.657-2.605-9.783
		c-0.345-2.906,1.495-5.321,1.983-7.991c-2.691-1.365-3.576,0.945-4.812,1.967c0,5.256,0,10.369,0,15.518
		c1.197,0.71,2.268,1.346,3.312,1.965c3.092,0,6.208,0,9.417,0C132.873,92.845,132.873,92.395,132.873,91.77z M138.702,46.217
		c3.526-1.52,4.422-3.696,5.268-5.822c-1.09-2.99-3.526-4.667-5.908-7.276c0,2.26,0,3.707,0,5.736
		C138.62,39.154,139.114,43.72,138.702,46.217z"/>
	<path d="M195.797,30.497c2.476-3.228,5.708-2.138,7.938-3.352c2.982-1.623,5.236,0.579,7.949,0.543
		c1.039,3.083,2.279,6.107,2.349,9.506c0.035,1.684,0.487,3.439,1.121,5.013c0.947,2.352,1.487,4.757,1.834,7.243
		c0.261,1.872,0.172,4.013,1.079,5.532c2.332,3.905,1.847,8.072,1.902,12.227c0.026,1.989,0.005,3.978,0.005,6.44
		c-3.727-0.494-7.308,0.592-11.05-0.911c-2.009-0.807-4.62-0.283-6.939-0.103c-2.206,0.171-4.482-0.69-6.648,0.878
		c-1.096,0.793-3.341-0.296-6.039-2.095c0.814-3.432-1.009-6.781-0.079-10.845c1.109-0.686,2.679-1.658,4.233-2.62
		c-2.154-0.712-3.281-2.782-3.423-5.262c-0.111-1.935,1.619-17.263,5.768-18.381C195.797,33.017,195.797,31.556,195.797,30.497z
		 M192.715,60.572c-0.811,0.678-1.316,1.101-1.742,1.457c0,1.309,0.255,2.547-0.061,3.616c-0.449,1.518,0.935,2.669,0.384,4.296
		c-0.367,1.084,1.802,2.229,3.213,1.544c2.302-1.116,4.755-1.957,7.184-1.78c2.845,0.207,5.924,0.328,8.481,1.144
		c2.672,0.852,5.047,0.317,7.669,0.841c0-4.106,0-7.882,0-12.166c-0.471-0.331-1.279-0.898-1.663-1.167
		c-1.773-9.471-6.906-28.953-7.895-29.976c-2.999,0.492-6.117,1.004-9.091,1.492c-0.483,0.484-0.836,0.836-1.221,1.221
		c0,7.768,0.057,15.569-0.039,23.369c-0.025,2.003-0.533,4.001-0.834,6.108C195.221,60.572,193.773,60.572,192.715,60.572z
		 M195.974,56.547c0-1.218,0-2.335,0-3.452c0-5.444,0-10.889,0-17.068c-1.009,1.108-1.625,1.583-1.981,2.207
		c-2.62,4.596-2.212,9.681-1.849,14.613C192.238,54.114,192.908,56.778,195.974,56.547z"/>
	<path d="M75.103,84.218c7.19,2.348,14.762,1.086,22.229,1.32c0.479,0.015,0.983-0.8,1.547-1.29c0-1.934,0-3.907,0-5.998
		c1.177-0.938,1.73-2.723,4.177-2.646c-2.9,5.579-3.644,11.296-2.809,17.832c0.918,1.248,2.228,3.029,3.555,4.832
		c-0.34,0.34-0.811,0.811-1.282,1.282c-4.51-4.362-4.51-4.362-4.592-11.954c-2.747,0-5.522,0-8.297,0
		c-2.498,0-5.18,0.571-7.441-0.161c-2.259-0.731-4.406-0.719-6.616-0.864c-1.276,1.754-1.349,3.764-1.732,5.789
		c-0.467,2.467-0.048,5.46-2.483,7.299c-2.851-1.382-2.851-1.382-3.859-3.063c-3.285,0-6.779-0.652-9.884,0.167
		c-3.755,0.991-7.42,0.589-10.39,0.809c-1.948,1.02-3.314,1.734-4.68,2.449c-0.058-0.107-0.116-0.215-0.174-0.322
		c-0.942,0.942-1.884,1.884-2.757,2.757c-2.189,0-4.308,0-6.279,0c-0.492-0.493-0.846-0.846-1.199-1.199
		c6.835-7.693,6.835-7.693,13.383-7.617c0.589,0.589,1.177,1.177,2.005,2.005c3.762-0.481,7.747,0.55,11.807-0.909
		c2.188-0.786,4.891-0.14,7.619-0.14c-0.359-1.721-0.904-3.196-0.911-4.674c-0.008-1.548,3.71-17.871,9.512-17.281
		c0.371,0.404,0.819,0.893,1.617,1.763c-0.343,1.324-0.826,2.955-1.178,4.614C75.633,80.7,75.406,82.41,75.103,84.218z
		 M74.598,75.616c-3.029,0.304-3,0.329-3.628,2.312c-1.101,3.475-2.542,6.881-2.006,10.667c0.069,0.49-0.394,6.771,1.498,9.052
		c0.461-0.897,0.89-1.731,1.122-2.183c0.497-3.532,1.155-6.689,1.331-9.872C73.099,82.263,74.145,79.168,74.598,75.616z
		 M35.972,100.095c3.614-0.001,6.191-2.138,9.706-4.347c-2.321,0-3.762,0-5.263,0C39.006,97.127,37.489,98.611,35.972,100.095z"/>
	<path d="M99.025,48.071c0-1.116,0-2.098,0-3.443c2.143-0.983,4.297-2.339,6.642-2.922c1.712-0.426,3.009-0.537,3.432-2.607
		c0.116-0.569,1.542-0.869,2.635-1.43c0.092,0.812,0.189,1.66,0.249,2.195c-1.523,1.137-2.789,2.083-4.076,3.045
		c0.384,1.817-0.736,3.76,1.147,5.248c-0.476,0.189-0.895,0.356-1.502,0.597c-0.612-1.277-1.193-2.488-1.895-3.954
		c-0.877,0-1.984,0-3.589,0c-0.364,0.717-0.914,1.798-1.659,3.264c1.019,0.276,1.742,0.251,2.072,0.599
		c1.876,1.974,4.246,1.869,6.686,1.993c2.174,0.111,4.322,0.742,6.505,1.148c1.108,1.582,1.108,1.582,0.861,3.729
		c-1.647-0.392-3.311-0.789-4.799-1.143c-1.034,0.972-1.838,1.727-2.738,2.572c-0.549-0.58-0.838-0.886-1.297-1.37
		c1.183-0.873,2.233-1.647,4.015-2.961C106.26,52.924,101.996,51.884,99.025,48.071z"/>
	<path d="M137.317,17.164c0.562,0.868,0.985,1.522,1.41,2.178c-0.244,0.244-0.698,0.698-1.161,1.161c-0.754,0-1.517,0-2.288,0
		C134.409,18.756,135.78,18.278,137.317,17.164z"/>
</g>
</svg>
