<?xml version="1.0" encoding="utf-8"?>
<!-- Generator: Adobe Illustrator 17.0.0, SVG Export Plug-In . SVG Version: 6.00 Build 0)  -->
<!DOCTYPE svg PUBLIC "-//W3C//DTD SVG 1.1//EN" "http://www.w3.org/Graphics/SVG/1.1/DTD/svg11.dtd">
<svg version="1.1" id="Layer_1" xmlns="http://www.w3.org/2000/svg" xmlns:xlink="http://www.w3.org/1999/xlink" x="0px" y="0px"
	 width="256px" height="111px" viewBox="0 0 256 111" enable-background="new 0 0 256 111" xml:space="preserve">
<g>
	<path d="M87.307,82.332c0.966,1.532,1.963,3.113,3.09,4.9c-2.109,0.459-4.381,0.133-6.616,0.195
		c-2.161,0.06-4.328-0.052-6.488,0.033c-1.892,0.074-3.735-0.267-5.642,0.87c-1.535,0.915-3.689-0.411-5.636,0.884
		c-1.106,0.736-3.289,0.905-4.263-1.267c0.402-1.268,1.46-1.568,2.86-1.529c2.817,0.077,5.639,0.023,8.394,0.023
		c0.535-0.535,1.005-1.005,1.613-1.613c-0.813-4.641,1.119-9.662-0.978-14.045c-3.155,0.324-5.829,0.598-8.394,0.861
		c-2.141-3.36-1.756-7.137-2.538-10.584c-0.502-2.212-1.283-4.473-2.399-5.966c-1.41-1.885-2.32-3.921-2.643-5.918
		c-0.351-2.171-1.828-2.364-3.203-3.234c0.412-3.848-1.196-8.15,2.433-11.392c0.492,0.325,0.984,0.651,1.762,1.165
		c0.583-0.552,1.15-1.088,1.707-1.614c0.284-5.888,2.133-11.927,13.643-17.628c1.589,0,3.243,0,5.095,0
		c3.153,3.494,6.249,7.132,5.331,12.541c-0.581,0.581-1.169,1.169-1.836,1.836c0,1.371,0,2.82,0,4.473
		c2.573-0.747,2.625-3.531,4.388-4.845c0.446,0.419,0.901,0.847,1.435,1.348c0,1.908,0,3.882,0,5.636
		c-0.8,1.845-1.533,3.536-2.266,5.224c2.454,1.091,2.978,3.393,4.416,4.839c1.735,1.743,1.475,4.144,2.582,5.94
		c1.537,2.494-2.289,4.146,0.372,6.903c1.506,0.209,4.368,0.148,6.169,3.063c-2.418,3.177-4.595,6.755-7.481,9.619
		C89.556,75.689,88.592,78.867,87.307,82.332z M83.173,42.334c1.79-2.327,3.507-4.682,2.517-7.861
		c-0.839,2.62-6.114,11.112-7.941,10.894c-0.772-2.597-4.884-2.232-5.333-5.746c1.009,0,1.791,0,2.876,0
		c0.603,2.205,1.819,4.172,4.777,3.77c0.792-1.621,1.521-3.114,2.133-4.368c-0.788-1.914-1.528-3.711-2.183-5.301
		c-0.995,0.634-1.986,1.265-3.366,2.145c0-1.418,0-2.201,0-3.015c2.674-0.928,4.044-3.407,6.133-5.144
		c-1.313-3.52-1.696-7.113-5.182-9.465c-4.564,1.183-9.168,2.63-12.094,7.085c-0.685,1.043-1.901,2.111-1.895,3.161
		c0.017,2.963-1.85,5.305-2.174,8.147c-0.334,2.926-0.709,5.893-1.889,8.679c-0.299,0.705-0.289,1.741-0.004,2.46
		c1.582,4,3.295,7.949,4.958,11.918c0.436,1.041,2.815,0.569,2.001,2.577c1.572,2.107,0.709,4.663,1.161,7.169
		c1.09,0,2.418,0.398,2.952-0.084c1.071-0.966,2.263-0.112,3.415-0.737c1.159-0.628,2.909-0.17,4.4-0.178
		c1.497-0.007,3.016-0.155,4.483,0.055c0.908,0.13,1.738,0.813,2.603,1.247c-0.066,0.25-0.131,0.5-0.197,0.749
		c-2.915,0-5.831,0-8.817,0c0,5.323-0.002,10.3,0.01,15.276c0,0.134,0.125,0.287,0.228,0.398c0.104,0.112,0.253,0.184-0.182-0.116
		c3.672-0.338,6.815-0.627,10.07-0.926c-2.15-2.15-4.145-4.145-6.009-6.009c1.494-1.598,2.96-3.165,4.403-4.709
		c1.069,0,2.058,0,3.013,0c0.504-0.504,0.974-0.974,1.491-1.491c-0.7-0.328-1.377-0.644-2.217-1.037c0-1.101,0-2.213,0-3.492
		c-1.853-0.336-3.526-0.766-5.222-0.911c-1.782-0.153-3.588-0.034-5.651-0.034c0.139-0.888,0.228-1.456,0.316-2.015
		c4.083,0.101,8.009-0.495,11.918,1.558c0.526,0.992,1.179,2.224,1.937,3.547c-0.065-0.065-0.13-0.13-0.195-0.195
		c-0.272,0.232-0.545,0.465-0.817,0.697c0.105,0.105,0.21,0.21,0.315,0.315c0.232-0.272,0.465-0.545,0.592-0.908
		c1.981-2.19,3.963-4.381,6.027-6.662c-3.036-2.786-6.84-0.33-10.462-1.947c1.625-1.405,3.077-2.66,4.388-3.794
		c0-2.552,0-4.871,0-7.143c-1.99-2.005-2.211-5.352-5.101-6.639c-1.068,1.591-1.863,2.932-1.964,4.817
		c-0.095,1.777-0.925,3.645-3.161,4.557c-3.96-3.565-9.364-5.25-12.817-9.994c0.976,0,1.756,0,2.917,0
		c2.033,3.499,6.325,4.477,9.535,7.056c0.636-1.085,0.931-2.119,1.617-2.643c1.338-1.023,0.972-2.332,1.022-3.608
		C84.001,44.355,83.355,43.199,83.173,42.334z M83.009,80.269c1.578,0,2.459,0,3.584,0c-0.154-0.766-0.265-1.319-0.463-2.307
		C85.05,78.761,84.285,79.326,83.009,80.269z"/>
	<path d="M163.915,61.35c-0.414-0.414-0.885-0.885-1.383-1.383c0-2.96,0-5.948,0-9.353c1.483-0.701,3.144-1.487,4.768-2.255
		c-0.587-2.627-2.082-4.227-4.355-4.793c-0.665-2.182-1.258-4.101-1.833-6.024c-0.222-0.742-0.578-1.496-0.579-2.245
		c-0.012-5.186,1.603-9.896,5.81-12.96c1.873-1.364,3.258-2.815,4.327-4.78c4.545,0,8.991,0,13.598,0
		c3.759,6.475,5.047,13.851,6.859,21.035c1.875,7.436,1.991,14.938-0.07,22.796c0.002-0.002-0.351,0.351-1.052,1.052
		c-4.423,0-9.345,0.709-13.941-0.212C171.973,61.409,167.982,61.823,163.915,61.35z M189.505,60.441c0-2.405-0.105-4.4,0.032-6.378
		c0.119-1.718-0.677-13.557-1.033-15.413c-0.326-1.695-4.362-16.619-5.442-19.156c-3.866,0-7.515,0-11.328,0
		c-0.41,1.324-1.116,2.635-1.172,3.973c-0.16,3.823,0.074,7.662-0.093,11.484c-0.168,3.865-0.657,7.715-0.949,11.576
		c-0.096,1.271-0.015,2.555-0.015,3.43c-1.95,0.688-3.402,1.2-5.019,1.77c0.095,2.604-0.136,5.18,0.142,7.629
		c4.434,0.407,8.428-0.063,12.526,0.895C180.935,61.136,185.085,60.441,189.505,60.441z M167.505,43.906
		c0-2.689-0.704-5.176,0.17-6.826c1.221-2.304,0.633-4.459,0.767-6.65c0.122-1.99,0.476-4.111-0.665-6.805
		c-1.712,2.561-3.041,4.549-4.278,6.399c0.071,4.36-0.539,8.619,1.628,12.469C165.433,43.035,166.34,43.239,167.505,43.906z"/>
	<path d="M201.405,66.788c0.039,0.369,0.072,0.688,0.145,1.377c-2.552,0-5.095,0-8.088,0c0.727,5.567-1.554,10.526-0.983,15.76
		c0.083,0.764-0.107,9.222-0.039,10.601c-2.541-0.188-1.023-19.81-0.98-20.521c0.128-2.119,0.046-4.25,0.046-6.565
		c-9.917,0-19.539,0.078-29.159-0.046c-3.027-0.039-6.039-0.756-9.071-0.917c-3.152-0.167-6.328,0.1-9.477-0.093
		c-1.644-0.101-3.252-0.782-5.391-1.334c0.811,7.784-1.57,14.805-0.914,22.015c0.089,0.979-1.551,4.093-2.874,4.966
		c0.177-3.736,0.8-11.957,0.896-12.935c0.25-2.534,1.996-11.958-0.622-13.676c-1.184,0-2.633,0-4.235,0c0-0.952,0-1.732,0-2.948
		c0.798,0.228,1.585,0.453,3.091,0.884c7.084-0.347,14.844,1.82,22.733,1.084c4.593,1.645,9.362,0.879,14.059,0.978
		c4.822,0.101,9.656-0.148,14.471,0.068C190.358,65.726,195.687,66.318,201.405,66.788z"/>
	<path d="M143.573,49.921c0.576,1.03,0.98,1.751,1.397,2.496c0.644,0,1.301,0,1.969,0c0.635-0.998,1.285-2.019,2.095-3.292
		c0.32,0.914,0.522,1.492,0.808,2.31c3.367-0.41,6.803-0.828,10.477-1.275c0,3.501,0,6.606,0,9.997
		c-0.246,0.212-0.746,0.64-1.412,1.212c-7.519,0-15.277,0-23.16,0c-0.081-1.762-2.446-3.057-0.559-5.205
		c1.196-1.362,1.913-3.147,2.994-4.998c0.935,0.672,1.819,1.307,2.967,2.131C141.794,52.401,142.527,51.379,143.573,49.921z
		 M158.505,54.034c-1.264-1.593-2.35-2.052-3.759-1.341c-0.547,0.276-1.1,0.636-1.686,0.727c-4.825,0.75-9.658,1.445-14.897,2.217
		c-0.266,1.237-0.512,2.377-0.797,3.703c6.87,0,13.305,0,19.708,0c0.493-0.477,0.969-0.938,1.43-1.384
		C158.505,56.597,158.505,55.269,158.505,54.034z"/>
	<path d="M79.642,26.308c-1.334,0-2.118,0-2.868,0c-0.152-0.583-0.269-1.034-0.436-1.676c-0.73,0-1.51,0-2.61,0
		c-0.096-1.056-0.178-1.952-0.315-3.459c1.628,0.689,3.01,0.98,3.982,1.772C78.304,23.687,78.779,24.961,79.642,26.308z"/>
</g>
<rect x="-128" y="-124" fill="none" width="128" height="124"/>
</svg>
