<?xml version="1.0" encoding="utf-8"?>
<!-- Generator: Adobe Illustrator 17.0.0, SVG Export Plug-In . SVG Version: 6.00 Build 0)  -->
<!DOCTYPE svg PUBLIC "-//W3C//DTD SVG 1.1//EN" "http://www.w3.org/Graphics/SVG/1.1/DTD/svg11.dtd">
<svg version="1.1" id="Layer_1" xmlns="http://www.w3.org/2000/svg" xmlns:xlink="http://www.w3.org/1999/xlink" x="0px" y="0px"
	 width="256px" height="111px" viewBox="0 0 256 111" enable-background="new 0 0 256 111" xml:space="preserve">
<g>
	<path d="M144.428,13.469c-2.114,0.847-4.214,1.688-6.416,2.57l-0.796-0.796c0.229-1.486,0.404-2.627,0.587-3.813h-3.804
		c-1.702,5.402-5.924,9.652-6.424,15.525c-4.39,5.617-11.657,6.005-17.472,9.175l-1.824-1.824c-0.901,0-1.91,0.132-2.872-0.027
		c-2.164-0.356-4.316-0.805-6.443-1.339c-0.463-0.116-0.796-0.75-1.182-1.138l1.471-1.471h3.863
		c7.374-4.149,9.069-6.052,9.618-10.829c-3.416-1.995-6.917-4.039-10.289-6.008c-3.45-0.495-6.78-0.974-9.663-1.388
		c-1.951,1.445-3.571,2.49-5.006,3.747c-1.625,1.424-3.216,2.93-4.586,4.595c-2.118,2.574-4.32,5.154-5.935,8.04
		c-1.023,1.828-1.026,4.222-1.545,6.347c-0.051,0.208-0.509,0.316-0.798,0.483c-0.971-0.439-1.953-0.882-2.815-1.272
		c-0.038-0.119-0.078-0.31-0.118-0.53c-0.049,0.001-0.095,0.007-0.145,0.007c-6.153,0-0.968-11.197-1.014-11.451
		c2.354-3.632,6.787-5.071,8.121-9.538c-2.63-0.958-4.783,2.072-7.132,0.313c0.319-0.352,0.635-0.701,0.837-0.923
		c-0.793-1.556-1.567-3.072-2.273-4.457h-3.355c-0.431,2.837-0.501,5.612-1.321,8.145c-1.235,3.816-3.08,7.419-5.47,10.694
		c-3.483,0.933-3.226,3.846-3.584,6.726c2.276,1.749,4.565,3.516,6.862,5.272c1.009,0.772,2.574,1.329,2.931,2.327
		c0.606,1.691,2.013,2.505,2.927,3.799c0.894,1.267,1.758,2.594,2.385,4.005c1.567,3.527,1.001,7.209,0.485,10.89
		c-0.485-1.461-0.97-2.923-1.451-4.369c0.409-0.659-5.724-9.578-8.212-11.53h-6.939c-0.358,1.131-0.719,2.272-1.175,3.709
		c2.998-0.154,3.108,2.303,4.271,3.672c1.233,1.452,2.254,3.084,3.273,4.505c0,0,3.965,0.873,4.384,0.962
		c2.831,0.601,3.534,3.066,4.307,5.211c0.513,1.424-0.006,3.056,0.983,4.618c0.775,1.225,1.599,8.323,1.444,10.296
		c0.742-0.158,1.049-0.223,1.74-0.369c-0.572-3.057-0.548-17.091-0.101-20.959c0.713-6.18-9.578-17.691-11.292-19.533
		c-1.829-1.965-3.153-4.023-2.798-5.748c2.619-4.39,4.695-7.87,6.801-11.4c0.311-0.115,0.622-1.384,0.343-1.753
		c0.789-0.278,1.369-0.483,1.82-0.642c0.171-0.966,0.315-1.78,0.467-2.634c0.951,1.348,1.742,2.469,2.373,3.363
		c-0.55,2.74-4.243,2.047-4.814,5.077c-0.416,2.205-1.81,4.225-2.781,6.357v3.546c2.007,1.365,3.739,2.744,5.652,3.791
		c2.217,1.214,4.208,3.308,7.251,2.673c0-1.09-0.147-1.944,0.028-2.725c0.475-2.12,0.67-4.454,1.73-6.261
		c2.361-4.026,5.082-7.867,8.755-10.878c1.609-1.319,3.278-2.566,5.311-4.15c2.738,0.438,5.855,0.937,9.079,1.453v1.711h-5.787
		c0.209,0.323-0.646,1.218-1.265,1.339c0.781,0.781,1.134,1.134,1.431,1.431c1.479-0.636,2.931-1.26,4.717-2.028v4.774
		c0.613,0.579,1.071,1.012,1.528,1.443l1.464-1.464c-0.167-0.58-0.553-5.953-0.428-6.721c1.265,2.828,6.198,2.468,5.32,7.02
		c-1.969,1.731-4.029,3.541-5.351,4.703c-4.201,0.702-7.412,1.239-11.4,1.905c2.133,2.253,3.692,3.9,4.981,5.261
		c3.144,0.565,5.939,1.067,8.731,1.569c-0.288,2.764-0.71,5.431-0.796,8.109c-0.063,1.955,1.613,3.886,5.368,6.738
		c-0.916-1.925-1.561-3.281-2.195-4.613c-0.283-1.834-0.57-3.697-0.935-6.065c0.254-0.738,0.704-2.043,1.152-3.349
		c3.433,0.24,6.267-1.823,9.425-2.645c3.194-0.831,9.099-4.446,9.085-4.623c0.052,0.704,0.052,1.205,0.051,1.706
		c-4.008,4.007-4.039,3.883-10.7,5.571c-2.041,0.517-3.905,1.841-5.744,2.969c-0.379,0.232-0.286,1.234-0.512,2.406
		c1.432-0.669,2.341-0.953,3.087-1.471c1.579-1.097,3.08-1.853,5.158-2.158c2.639-0.388,5.277-1.795,7.561-3.301
		c2.408-1.587,3.805-4.227,5.188-6.785c0.955-1.766,2.257-3.343,3.298-4.851h5.409c2.584-1.018,3.351-3.745,5.233-5.356
		C145.758,15.288,145.758,15.288,144.428,13.469z M65.632,53.191c-0.779,0.041-1.676,0.087-2.873,0.15
		c-0.979-2.248-1.9-4.36-3.011-6.912h3.654c0.676,0.676,1.38,1.38,2.23,2.23V53.191z M139.276,22.306c-1.665,0-3.33,0-4.995,0
		c-2.553,0.701-1.921,4.903-5.561,5.032c1.842-3.583,3.508-6.82,5.023-9.766c2.005-0.811,3.01,1.946,4.872,0.493
		c1.038-0.811,2.494-1.086,3.803-1.62l1.143,1.143C143.292,20.122,140.496,20.55,139.276,22.306z"/>
	<path d="M201.541,71.133c-0.695,1.227-2.402,1.731-3.629,1.08c-2.842-1.505-5.768-0.559-8.918-1.005
		c-0.17,8.089-3.232,15.773-2.098,24c-1.206,0-1.99,0-2.754,0c-1.525-4.295,0.38-8.411,0.96-12.426
		c0.533-3.693,0.517-7.734,2.741-11.476c-2.252,0-4.239,0.181-6.175-0.056c-1.589-0.195-3.059-0.252-4.687-0.066
		c-2.321,0.265-4.71-0.173-7.111-0.629c-2.987-0.567-11.215,0.847-12.024,0.734c-5.088-0.709-9.848,2.045-15.403,0.7
		c1.279,3.226,1.907,5.63,0.473,8.352c-0.585,1.11-0.826,3.278,0.557,4.282c-0.36,3.013-0.696,5.827-1.03,8.619
		c-0.426,0.027-0.75,0.048-1.12,0.071c-0.412-0.789-0.831-1.591-1.295-2.479c0.214-0.539,0.709-1.216,0.716-1.898
		c0.062-5.794,0.036-11.588,0.036-17.59c-3.034,0.426-5.814,0.817-8.722,1.226c-0.163-0.851-0.251-1.306-0.342-1.781
		c2.328-0.492,4.6-0.971,7.955-1.68c-1.407-0.595-1.848-0.782-2.625-1.11c0-1.572,0-3.467,0-5.522
		c0.345-0.071,0.8-0.164,1.571-0.323c0.086-1.104,0.184-2.35,0.295-3.76c0.557,0,1.218-0.191,1.422,0.033
		c0.883,0.973,1.632,2.067,2.889,3.723c0.408-1.774,0.639-2.777,1.015-4.411c0.921,1.034,1.535,1.724,2.096,2.355
		c0.486-1.159,1.054-2.513,1.693-4.038c0.811,0.808,1.283,1.278,1.743,1.736c-0.32,0.351,1.975,0.561,3.466,0.462
		c1.372-0.091,2.716-0.601,4.072-0.924c0.471,0.473,0.942,0.944,1.443,1.445c0,2.626,0,5.282,0,8.002
		c-0.617,0.653-1.28,1.355-2.176,2.305c1.362,0,2.466,0,3.732,0c0.395-0.685,0.927-1.607,1.493-2.589
		c-1.59-2.998-1.478-6.011,0.205-8.87c1.251-0.405,2.729-3.066,2.303-3.259c-2.996-1.352-4.432-3.76-4.896-6.901
		c-0.04-0.268,0.083-7.11,0.421-10.42c1.613-3.507,4.387-6.066,7.936-8.454c0-1.048,0-2.502,0-4.36
		c1.072-0.318,2.088-0.85,3.12-0.882c3.484-0.11,6.973-0.042,10.113-0.042c3.229,1.807,3.94,5.04,4.58,7.769
		c0.608,2.595,1.482,5.076,2.205,7.615c1.228,4.308,2.23,8.687,3.987,12.833c0.6,1.415,1.112,2.868,2.007,5.195
		c0,0.657,0.255,2.363-0.075,3.948c-0.304,1.458-3.006,6.949-1.746,8.275C193.244,69.39,201.087,70.385,201.541,71.133z
		 M189.779,67.202c0-1.059-0.332-2.185,0.056-2.944c2.013-3.944,0.832-7.771-0.221-11.59c-0.899-3.26-3.033-6.16-3.404-9.523
		c-0.4-3.623-2.377-6.746-2.583-10.47c-0.137-2.474-1.734-4.867-2.62-7.149c-4.053,0-7.614,0-11.227,0
		c0,5.692-0.283,11.183,0.08,16.632c0.361,5.421-1.829,10.543-0.936,16.268c-1.983,0-3.551,0-5.143,0
		c0.261,2.853-2.141,5.12-0.64,7.742c0.352,0.352,0.705,0.705,1.035,1.035C172.627,67.202,181.058,67.202,189.779,67.202z
		 M166.458,52.948c0.411-2.068,1.065-4.34,1.267-6.651c0.229-2.623,0.116-5.283,0.034-7.924c-0.073-2.364,0.369-4.785-0.414-7.676
		c-6.179,5.213-5.648,11.756-5.538,17.592C163.605,50.09,165.078,51.566,166.458,52.948z M157.547,66.059
		c-0.85-2.081-1.601-3.921-2.326-5.695c-0.685,0-1.514-0.259-1.972,0.043c-2.37,1.565-4.958,1.869-7.717,1.964
		c-1.84,0.063-3.696,0.643-5.467,1.228c-0.63,0.208-1.029,1.113-1.668,1.856c0.863,0.697,1.486,1.201,2.287,1.849
		c0.845,0,2.011,0,3.177,0c1.332,0,2.668,0.059,3.996-0.019c1.09-0.064,5.521,0.012,6.664-0.055
		C155.538,67.173,156.517,66.484,157.547,66.059z M142.951,69.983c2.95,0.189,5.911,0.597,9.023,0.061
		c-0.25-0.829-0.38-1.263-0.17-0.566C150.022,66.788,144.277,68.765,142.951,69.983z"/>
	<path d="M95.558,91.195c-3.991-2.126-2.425-6.791-5.621-9.115c-4.095,1.438-8.151,3.152-13.071,1.834
		c-1.429-1.345-2.316-3.47-2.074-6.144c1.142-1.082,2.346-2.224,3.571-3.385c3.156,1.92,3.156,1.92,7.516,1.92
		c1.68-0.869,3.388-1.623,4.959-2.596c2.587-1.603,3.545-4.489,4.881-6.965c3.112-5.769,5.083-7.534,10.809-9.842
		c1.335-0.538,3.118-0.976,3.637-0.479c1.539,1.476,2.608-0.923,3.769-0.098c1.107,0.787,2.245,1.112,3.6,1.003
		c1.3-0.105,2.616-0.023,4.156-0.023c0.663-1.597,1.297-3.123,2.107-5.074c-2.343,0.405-4.495,0.637-6.573,1.164
		c-4.574,1.16-5.454,1.023-9.788,0.166c-2.358-0.466-4.884-0.083-7.529-0.083c-0.964,1.675-1.847,3.521-3.02,5.16
		c-1.223,1.707-2.72,3.218-4.112,4.802c-0.277,0.316-0.569,0.677-0.934,0.849c-3.167,1.498-5.172,4.125-6.866,7.514
		c-0.957-0.863-1.638-1.477-2.234-2.015c0.093-0.527,0.035-0.969,0.22-1.128c2.209-1.895,3.931-4.245,6.566-5.795
		c2.149-1.264,4.111-3.304,4.974-5.842c0.856-2.516,3.17-3.662,4.389-5.339c1.472-0.471,2.648-0.848,3.854-1.235
		c1.096,0.267,2.322,0.863,3.499,0.776c1.432-0.105,2.495,0.469,3.578,1.098c1.188,0.691,1.888-1.526,3.36-0.337
		c0.576,0.465,2.226-0.529,3.409-0.653c1.29-0.135,2.604-0.031,4.03-0.031c1.466-2.714,2.869-5.314,4.268-7.904
		c0.985,0,1.769,0,2.978,0c-0.38,1.931-0.68,3.732-1.1,5.504c-0.429,1.81-0.83,3.649-1.512,5.369
		c-0.682,1.721-1.697,3.311-2.66,5.138c-3.263-0.481-6.481,0.621-9.599-0.916c0,1.608,0,3.178,0,5.16
		c1.01-0.519,1.677-0.862,2.62-1.346c2.318,0,4.982,0,7.691,0c0.433,0.456,0.89,0.938,1.464,1.543
		c-0.064,0.317-0.025,0.848-0.261,1.191c-2.951,4.29-3.61,9.501-5.626,14.169c-0.384,0.89,0.549,2.349,0.866,3.513
		c2.209,1.868,5.865,1.567,7.171,4.667c-1.701,2.485-3.65,0.126-5.5,0.577c-1.827,0.446-4.018-0.201-5.956-0.718
		c-1.918-0.511-3.72-1.459-5.576-2.216c-0.948-4.852,4.006-7.794,3.898-12.303c-2.314-1.501-3.824,1.32-5.843,0.546
		c-0.135,1.169-0.225,1.957-0.353,3.069c-5.461-0.638-9.842,2.425-14.61,4.26c-1.098,2.072,0.696,2.935,1.761,4.197
		c0,0.911,0,1.899,0,3.037c0.842,0.681,1.745,1.412,2.515,2.034c5.13-1.517,9.902-0.138,14.658,2.798
		c-0.772,0.211-1.77,0.84-2.28,0.565c-3.544-1.915-7.308-2.228-11.568-1.785c-3.361,4.151-7.885,7.411-13.012,9.792
		c-0.912,0.424-2.19,0.06-4.402,0.06c1.541-1.543,2.232-2.857,3.002-2.905C88.608,98.089,91.554,94.671,95.558,91.195z
		 M114.779,78.306c-0.516,0.682-1.094,1.327-1.531,2.057c-0.511,0.852-0.898,1.778-1.508,3.017c2.386,0.981,4.578,1.883,6.472,2.662
		c0.731-0.343,1.927-0.1,2.16,0.172c0.105-0.105,0.21-0.21,0.315-0.315c-0.272-0.232-2.974-2.285-3.853-3.004
		c0-2.235,0-4.217,0-5.648c0.793-1.738,1.766-2.971,1.857-4.266c0.156-2.218,0.972-3.91,2.371-5.563
		c0.585-0.691,0.536-1.919,0.718-2.666c-4.133-1.666-7.096,1.14-10.871,1.859c-0.586-2.95-1.123-5.651-1.73-8.705
		c-2.872,2.118-6.655,2.051-8.471,5.649c-1.47,2.915-4.401,5.082-4.869,8.922c3.983-1.547,7.534-1.889,10.294-0.553
		c4.564-0.222,7.59-3.007,11.749-3.807c-0.819,1.583-1.368,2.644-1.752,3.387C115.639,73.974,115.209,76.14,114.779,78.306z
		 M105.103,73.482c-2.766,0-4.917-0.231-6.989,0.074c-1.634,0.241-3.279,1.825-4.728,1.598c-2.454-0.385-3.204,1.99-5.14,2.357
		c-0.779,0.147-1.632,0.895-2.635,0.79c-2.368-0.249-4.733-0.531-7.485-0.844c-0.36,0.394-0.979,1.071-1.511,1.654
		c0.667,1.279,1.167,2.237,1.797,3.447c3.24-0.463,6.571-0.939,10.172-1.454c8.631-5.096,10.293-5.761,14.753-5.855
		C103.809,74.776,104.28,74.305,105.103,73.482z"/>
</g>
</svg>
