<?xml version="1.0" encoding="utf-8"?>
<!-- Generator: Adobe Illustrator 17.0.0, SVG Export Plug-In . SVG Version: 6.00 Build 0)  -->
<!DOCTYPE svg PUBLIC "-//W3C//DTD SVG 1.1//EN" "http://www.w3.org/Graphics/SVG/1.1/DTD/svg11.dtd">
<svg version="1.1" id="Layer_1" xmlns="http://www.w3.org/2000/svg" xmlns:xlink="http://www.w3.org/1999/xlink" x="0px" y="0px"
	 width="256px" height="111px" viewBox="0 0 256 111" enable-background="new 0 0 256 111" xml:space="preserve">
<g>
	<path d="M96.508,12.239c0.392,0.809,0.784,1.618,1.29,2.664c-3.474-1.144-6.758-0.423-10.29-0.755c0-0.688,0-1.298,0-1.909
		C90.508,12.239,93.508,12.239,96.508,12.239z"/>
	<path d="M72.87,67.213c-0.585-2.509-0.945-5.02-1.306-7.53c2.058-2.097,0.271-4.781,1.073-7.05c0.82-2.32,1.776-4.591,2.796-7.199
		c-1.277-0.739-2.722-1.575-4.451-2.576c-1.014-1.295-2.269-2.898-3.496-4.465c0.009-2.333,1.23-3.967,2.787-5.416
		c4.686-4.361,9.355-8.74,14.091-13.046c0.785-0.714,1.871-1.096,3.042-1.759c0.919,0.454,2.02,0.997,3.008,1.485
		c0.122,0.567,0.22,1.021,0.385,1.79c1.348-0.277,2.553-0.652,3.779-0.752c2.765-0.225,5.665-0.861,8.27-0.271
		c1.851,0.419,4.127,1.527,4.754,4.219c0.335,1.438,1.637,2.651,2.683,4.239c0.254,2.304,0.549,4.977,0.964,8.732
		c-0.035,0.083-0.504,1.211-0.986,2.366c-2.675,0.991-5.078,2.358-7.424,5.257c1.906,0,3.02,0,4.135,0c2.331,0,4.663,0,6.994,0
		c1.541,2.251,4.162,0.592,6.292,1.772c2.202,1.22,5.139-0.348,7.62-1.582c3.281-1.632,6.708-2.969,10.421-4.585
		c0,1.256,0,2.032,0,3.122c-1.381,1.015-3.046,2.239-4.794,3.524c0,1.191,0,2.309,0,3.244c-3.129,3.237-7.636,2.255-11.479,0.561
		c-2.455,2.159-4.818,0.244-7.236,0.004c-2.62-0.26-5.285-0.059-8.266-0.059c-0.711,3.571-1.408,7.069-2.153,10.806
		c2.007,0,3.793,0,5.586,0c1.193,1.676,2.296,3.225,3.297,4.63c0.469,2.111,0.911,4.107,1.294,5.83
		c1.259,1.372,2.378,2.592,3.186,3.473c3.762,1.307,5.121-3.632,8.553-2.578c-1.062,4.619-1.062,4.619-8.018,11.575
		c-0.13,0.088-0.258,0.25-0.39,0.253c-0.987,0.022-1.974,0.012-3.083,0.012c-2.495-3.114-2.828-6.906-3.488-10.877
		c-1.884-1.656-3.943-3.466-5.851-5.144c-1.881,0.794-3.413,1.44-5.441,2.296c2.808,1.794,5.145,3.287,7.099,4.536
		c1.09,2.565-0.051,4.294-0.909,5.898c-1.179,2.204-2.694,4.244-4.202,6.252c-1.233,1.642-0.444,2.709,0.886,3.91
		c1.48,0,3.114,0,4.68,0c1.405,0.87,2.703,1.675,4.132,2.56c-1.091,0.561-1.918,0.986-3.191,1.64
		c-3.835-0.411-8.17-0.874-12.805-1.371c-0.203-0.203-0.674-0.674-1.233-1.233c-0.365-5.547,3.647-10.4,2.958-16.276
		c-1.605,0-3.173,0-5.028,0c0.432,0.546,0.694,0.876,1.032,1.303c-0.379,0.411-0.793,0.86-1.175,1.274
		c-1.65,0.779-3.466-0.301-5.214,0.926c-0.795,0.558-2.758-0.549-4.422-0.958c-0.512,3.958-0.959,7.415-1.414,10.934
		c4.048,1.376,7.682,2.611,11.3,3.841c-0.019,0.385-0.036,0.711-0.072,1.421c-0.902-0.063-1.971,0.168-2.657-0.242
		c-2.163-1.294-4.658-1.706-6.947-2.528c-3.035-1.09-6.252,0.501-9.311,1.346c-2.553,0.705-4.967,2.137-8.117,1.216
		c0.202-0.612,0.274-1.543,0.569-1.621c4.369-1.144,8.767-2.174,13.529-3.321c0-1.677-0.143-3.48,0.041-5.249
		c0.177-1.698,0.692-3.362,1.166-5.534c-2.161,0-4.122,0.163-6.041-0.049c-1.682-0.186-3.318-0.793-5.032-1.228
		c0.291-2.356,1.422-5.027,0.654-6.93c-0.974-2.412-0.6-4.929-1.646-7.313c-0.999-2.275-2.051-4.18-4.089-5.693
		c-0.524,0.348-0.911,0.605-1.456,0.967c-0.631-0.268-1.411-0.6-2.257-0.96c-0.087-0.194-0.342-0.487-0.317-0.754
		c0.1-1.092-0.403-2.259,0.614-3.26c0.365-0.36,0.418-1.225,0.333-1.818c-0.246-1.706-0.934-3.401-0.88-5.083
		c0.048-1.489,0.858-2.954,1.458-4.823c1.365-1.014,1.361-1.045,4.41-0.992c0.596,1.426,1.244,2.977,1.838,4.398
		c-0.36,2.232-0.714,4.423-1.198,7.422c-0.313,0.603-1.023,1.973-1.651,3.185c1.719,1.429,3.299,2.742,4.62,3.84
		C70.809,63.466,72.45,67.281,72.87,67.213c0.086,0.007-0.192,3.932-0.192,6.084c1.081-0.105,1.972-0.192,3.432-0.334
		c-0.925-1.206-1.618-1.876-2.016-2.689C73.626,69.319,73.416,68.238,72.87,67.213z M71.508,35.239
		c-2.009,1.267-0.425,3.15-1.237,4.863c2.164,1.219,4.322,2.001,5.884,3.433c1.694,1.553,3.797,2.196,5.61,3.419
		c1.691,1.141,4.351,1.05,4.897,4.166c-0.963,0.057-1.739,0.103-2.147,0.128c-2.161-1.548-4.076-2.919-5.846-4.188
		c-3.641,1.748-2.367,5.578-4.161,7.889c0.095,5.433-0.789,11.002,2.565,16.228c0.799,0.271,2.053,1.158,3.12,0.972
		c3.258-0.568,5.879,1.924,9.134,1.516c1.336-0.168,2.798,1.271,4.279,1.508c1.776,0.285,3.632,0.067,5.403,0.067
		c0.52,0.52,0.99,0.99,1.665,1.665c-1.397,5.218-2.833,10.581-4.325,16.151c1.562,0,2.795,0,4.071,0
		c-0.398-1.817-0.763-3.482-1.016-4.639c1.821-2.924,3.361-5.397,4.887-7.846c-0.244-0.328-0.477-0.64-0.744-0.999
		c0.856-0.353,1.491-0.615,2.838-1.171c-2.896-2.348-5.218-4.231-7.797-6.323c-1.427,0.309-3.083,0.668-4.731,1.025
		c-0.445-0.465-0.885-0.925-1.174-1.227c1.8-2.078,4.439-1.216,6.626-1.986c2.165-0.762,4.221-1.837,6.438-2.825
		c1.951,1.413,3.857,2.794,5.854,4.07c-0.065,0.065-0.13,0.13-0.195,0.195c0.232,0.272,0.465,0.545,0.697,0.817
		c0.105-0.105,0.21-0.21,0.315-0.315c-0.272-0.232-0.545-0.465-0.908-0.592c0.273-2.712-0.357-5.103-2.164-6.696
		c-3.996-1.158-7.315,0.371-10.367,1.887c-3.477,1.727-6.83,2.084-10.632,1.547c0.207-0.78,0.325-1.228,0.504-1.902
		c4.066,1.119,7.526-0.87,11.749-2.426c0.253-0.253,1.077-1.077,2.005-2.005c-1.199-4.571,2.544-8.688,1.805-13.059
		c-1.663-1.684-4.712-1.674-3.633-5.339c2.295-1.537,5.049-3.38,7.699-5.154c0-2.939,0-5.594,0-8.318
		c-1.33-1.158-2.185-3.415-4.879-2.212c-0.776,1.154-1.635,2.433-2.109,3.138c-0.861-0.342-1.657-0.658-2.079-0.825
		c1.312-1.392,2.277-2.414,3.331-3.532c0.79-0.127,1.812-0.291,3.464-0.556c-1.379-1.556-2.314-2.612-3.133-3.536
		c-4.092,0.023-8.006-0.515-11.619,1.642c0.558,2.416-1.353,3.279-3.014,4.614c-2.48-3.09-4.578,0.261-6.914,0.218
		c-2.292,2.622-4.589,5.241-5.21,8.929c2.74,1.831,5.355,3.579,8.343,5.575c0.32,0.078,1.141,0.277,3.084,0.748
		c-1.497,0.779-2.069,1.327-2.406,1.209c-1.446-0.509-2.89-1.102-4.208-1.88c-1.358-0.801-2.448-2.167-3.874-2.715
		c-1.8-0.691-2.785-1.972-4.044-3.236c1.822-2.805,3.468-5.339,5.611-8.639C75.159,30.45,73.289,32.793,71.508,35.239z
		 M91.425,76.644c-1.357-0.351-2.7-0.75-4.067-1.041c-2.304-0.491-4.607-1.09-6.941-1.289c-1.158-0.099-2.365,0.742-3.583,0.886
		c-1.418,0.168-2.87,0.039-4.936,0.039c0.893,1.407,1.385,2.183,1.754,2.766c6.023,0,11.806,0.002,17.589-0.016
		c0.089,0,0.177-0.244,0.27-0.374C91.484,77.293,91.455,76.972,91.425,76.644z M105.443,47.095c0.667,1.35,1.105,2.239,1.471,2.979
		c0.632-0.302,1.163-0.687,1.749-0.814c2.674-0.578,5.244,0.537,7.889,0.688c2.382,0.137,4.655,0.318,7.148,0.01
		c-0.25-0.811-0.385-1.251-0.529-1.719c-2.583,0-5.328,0.681-7.483-0.156C112.274,46.755,109.024,47.666,105.443,47.095z
		 M116.203,83.47c2.108-1.5,3.806-2.655,5.442-3.893c0.824-0.624,1.467-1.405,0.402-2.26c-1.745,0.393-3.407,0.767-5.25,1.182
		c-0.871-1.416-1.542-2.674-2.394-3.793c-0.276-0.363-1.028-0.363-1.562-0.529C114.847,77.039,113.43,80.964,116.203,83.47z
		 M89.508,24.879c0-1.141,0-2.129,0-3.235c-0.671-0.522-1.399-1.089-1.495-1.164c-2.161,2.161-4.027,4.027-5.658,5.658
		C84.271,25.801,86.701,25.374,89.508,24.879z M124.588,48.122c-0.108,0.39-0.215,0.78-0.323,1.17
		c1.066,0.708,2.131,1.415,2.948,1.958c1.637-0.563,2.942-1.012,4.294-1.477c0-0.476-0.104-0.996,0.025-1.45
		c0.183-0.644,0.539-1.24,1.269-2.836C129.688,47.155,127.502,48.898,124.588,48.122z M63.583,55.889
		c0.79-3.313,3.089-6.808,1.459-10.744c-0.545,0.127-0.992,0.231-1.459,0.34C63.583,49.039,63.583,52.464,63.583,55.889z"/>
	<path d="M194.508,73.369c-3.206-0.559-22.986-1.131-27.5-1.131c-0.631-0.631-0.984-0.985-1.117-1.117
		c0.298-3.54,0.58-6.879,0.9-10.682c0.899-0.605,2.197-1.479,3.781-2.546c-1.65-1.329-3.478-2.32-4.593-3.835
		c-1.137-1.545-1.26-17.961,0.788-22.295c1.89-2.866,5.652-4.013,6.934-7.394c4.467-0.748,8.284,1.296,12.625,2.142
		c0.873,2.822,2.137,5.836,2.235,9.226c0.049,1.696,0.376,3.501,1.072,5.033c1.06,2.333,1.484,4.756,1.881,7.225
		c0.301,1.867,0.186,4.003,1.085,5.533c2.391,4.068,1.844,8.408,1.903,12.725C194.532,68.418,194.508,70.583,194.508,73.369z
		 M190.82,57.051c-1.876-9.346-3.672-18.295-5.528-27.544c-0.592-0.565-1.433-1.368-2.346-2.24c-2.753,0.575-5.344-2.23-8.484-0.598
		c0.612,9.299-1.732,18.558-0.959,27.945c0.041,0.496,0.119,1.033-0.016,1.493c-0.391,1.331-0.881,2.632-1.251,3.71
		c-1.386,0.583-2.642,1.111-3.481,1.463c-0.277,2.371-0.465,4.139-0.697,5.901c-0.132,1-0.337,1.99-0.521,3.058
		c4.641,0,8.813-0.14,12.97,0.04c3.966,0.171,7.917,0.676,11.871,1.033c0-4.604,0-8.721,0-12.704
		C191.775,58.006,191.304,57.535,190.82,57.051z M171.047,55.259c0.713-4.997,1.339-22.875,0.772-25.545
		c-0.91,0.968-1.77,1.617-2.286,2.473C166.045,37.972,168.013,55.298,171.047,55.259z"/>
	<path d="M194.508,98.761c-1.41-0.892-2.266-1.434-2.811-1.778c0.312-1.92,0.632-3.45,0.788-4.997
		c0.117-1.154-0.031-2.332,0.033-3.495c0.2-3.663,0.445-7.324,0.692-11.314c-8.463,0.798-16.916-2.093-25.371-0.816
		c-9.346,1.411-18.691,0.389-28.06,0.998c-0.428,3.868-1.007,7.677-1.213,11.507c-0.125,2.322,0.327,4.674,0.535,7.195
		c-0.514,0-1.293,0-2.278,0c0.064,0.067-0.15-0.051-0.152-0.173c-0.067-4.309-0.173-8.62-0.13-12.929
		c0.014-1.392-1.802-5.304-3.301-5.954c0.76-0.76,1.231-1.231,1.942-1.942c1.335,0.296,6.38,0.167,7.396,0.222
		c11.555,0.633,23.034-1.197,34.564-1.008c4.697,0.077,9.311,1.407,14.083,1.04c1.278-0.098,2.63,0.782,4.283,1.322
		C195.508,78.062,194.508,96.492,194.508,98.761z"/>
	<path d="M141.554,73.078c0-1.9,0-3.553,0-5.236c0.978-0.638,2.003-1.306,3.034-1.978c-0.426-0.483-0.73-0.83-0.516-0.586
		c0.426-0.839,0.803-1.578,1.389-2.731c0.825,1.303,1.326,2.093,1.998,3.155c1.005-1.392,1.749-2.423,2.606-3.609
		c0.336,0.9,0.552,1.476,0.904,2.419c0.974-0.645,1.822-1.207,2.843-1.884c-0.431-0.74,1.672-0.796,1.672,0.814
		c2.425-0.848,4.434-1.551,6.881-2.407c0.051,1.921,0.117,3.669,0.139,5.418c0.023,1.812,0.005,3.625,0.005,5.786
		c-1.749,0-3.396,0.17-4.996-0.031C152.252,71.548,147.205,73.964,141.554,73.078z M142.56,71.415
		c6.65-0.554,12.208-1.018,17.686-1.474c0-1.934,0-3.827,0-6.053c-4.989,1.306-9.657,2.528-14.859,3.89
		C144.91,68.392,144.069,69.473,142.56,71.415z"/>
	<path d="M84.593,17.239c0-0.78,0-1.225,0-1.663c2.856-1.316,5.192,0.686,7.829,0.937c0,0.507,0,0.952,0,1.803
		c-1.438-0.391-2.68-0.864-3.963-1.04C87.217,17.105,85.932,17.239,84.593,17.239z"/>
	<path d="M85.687,29.827c-1.346,2.882-4.859,4.65-4.25,8.347c-0.702,0.035-1.023,0.052-1.705,0.086
		c-0.105-1.044-0.211-2.106-0.348-3.475c2.299-1.252,2.268-4.761,5.301-5.519C84.897,29.213,85.207,29.547,85.687,29.827z"/>
	<path d="M102.773,34.239c0.891,0,1.547,0,2.533,0c0.078,0.858,0.159,1.746,0.257,2.826c-0.978,0-1.751,0-2.789,0
		C102.773,36.24,102.773,35.241,102.773,34.239z"/>
</g>
</svg>
