<?xml version="1.0" encoding="utf-8"?>
<!-- Generator: Adobe Illustrator 17.0.0, SVG Export Plug-In . SVG Version: 6.00 Build 0)  -->
<!DOCTYPE svg PUBLIC "-//W3C//DTD SVG 1.1//EN" "http://www.w3.org/Graphics/SVG/1.1/DTD/svg11.dtd">
<svg version="1.1" id="Layer_1" xmlns="http://www.w3.org/2000/svg" xmlns:xlink="http://www.w3.org/1999/xlink" x="0px" y="0px"
	 width="256px" height="111px" viewBox="0 0 256 111" enable-background="new 0 0 256 111" xml:space="preserve">
<g>
	<path d="M51.507,48.436c1.342-1.108,2.921-1.109,4.341-0.557c2.219,1.026,4.439,2.052,6.658,3.079c0,0.826,0,1.652-0.061,2.555
		c-0.991,1.231-0.991,1.231-0.062,2.89c0-1.121,0-2.044,0.062-2.89c0.931,1.428,1.119,2.005,1.207,2.958
		c1.08,1.234,1.801,2.057,2.496,2.852c0.479-3.141,0.958-6.277,1.429-9.364c1.32-1.849,3.435-2.936,4.273-5.273
		c0.614-1.714,3.51-1.249,3.899-3.831c0.216-1.43,2.877-1.527,3.43-3.4c0.116-0.392,1.378-0.402,1.559-0.824
		c1.46-3.411,5.027-5.047,6.775-8.19c0.304-0.547,0.602-1.163,1.068-1.546c3.347-2.746,6.561-5.714,10.187-8.035
		c1.871-1.197,4.498-1.213,6.875-1.784c1.311,1.31,2.44,2.436,3.695,3.69c0.701-0.521,1.199-0.891,1.613-1.198
		c0.662,0.353,1.341,0.716,2.198,1.173c0.41,1.705,0.899,3.671,1.351,5.645c0.422,1.845-0.927,4.008,0.877,5.48
		c-0.394,2.087-0.774,4.102-1.184,6.273c-0.429,0.212-1.088,0.537-2.012,0.993c1.096,1.735,2.096,3.319,3.001,4.752
		c-0.345,1.115-0.709,2.291-1.122,3.626c-1.779,0.998-3.684,2.067-6.377,3.578c5.907,0.657,10.966,0.163,16.165,0.39
		c1.343-0.903,2.779-1.869,4.24-2.852c1.633,1.792,3.936,0.334,6.094,0.963c1.053,0.852,1.939,1.953,0.985,3.735
		c-1.571,0-3.21,0-4.991,0c-1.006,1.271-2.028,2.563-3.05,3.855c-0.203-0.145-0.407-0.289-0.61-0.434c0,2.12,0,4.239,0,6.523
		c-0.96,0-1.745,0-2.607,0c-0.345-0.672-0.766-1.492-1.221-2.377c0.294-0.52,0.663-1.173,1.101-1.946
		c-2.057-0.506-3.853-0.949-5.795-1.427c-0.242,0.218-0.605,0.544-0.948,0.853c-3.412-2.606-6.751,0.345-10.142,0.151
		c-0.857,1.79-1.714,3.581-2.929,6.12c1.509-0.463,2.294-0.705,3.888-1.194c3.448,0,7.777,0,12.381,0
		c0.778,2.68,0.006,4.882-2.033,6.794c-2.621,2.458-3.821,5.674-4.853,9.036c0.91,2.764,3.637,2.471,5.504,3.021
		c2.275,0.67,2.931,1.669,2.449,4.164c-4.12-0.787-8.244-1.575-12.619-2.411c-0.036-0.144-0.147-0.594-0.334-1.348
		c1.349-0.153,2.585-0.293,4.059-0.461c-0.456-0.945-0.878-1.819-1.463-3.032c-0.681,0.428-1.382,0.747-1.933,1.235
		c-2.552,2.262-4.717,4.893-7.653,6.817c-1.739,1.14-2.731,3.419-4.039,5.16c1.176,1.046,2.348,1.808,3.129,2.861
		c0.814,1.097,1.251,2.474,2.042,4.124c0,0.848,0,2.18,0,3.549c-0.456,0.44-0.935,0.902-1.755,1.692
		c-0.573-1.358-1.089-2.58-1.775-4.206c-3.918-1.951-5.483-6.94-9.469-9.181c-0.071-2.774,0.95-4.918,2.889-6.077
		c2.59-1.548,4.451-3.778,6.643-5.744c0.628,0,1.293,0,2.201,0c0.096-0.528,0.2-1.094,0.338-1.853c-2.704,0-5.158,0-7.884,0
		c-0.461,0.73-1.045,1.657-1.791,2.84c-2.821,0-5.942,0-9.39,0c0,1.459-0.235,2.808,0.073,4.019
		c0.256,1.005,0.179,2.096,0.515,2.948c0.465,1.18,0.331,1.971-0.008,3.136c-0.257,0.883-0.136,1.996-0.599,2.987
		c0.524,1.311,1.442,1.732,2.922,2.007c3.179,0.591,6.396,1.341,9.245,3.319c-0.613,0.554-1.1,0.995-1.593,1.441
		c-3.272-2.469-7.606-1.967-11.187-3.717c-5.177,2.115-11.161,1.57-15.995,4.847c-0.209,0.142-0.63-0.028-1.454-0.091
		c0.421-1.046,0.783-1.947,0.97-2.412c5.773-1.454,11.018-2.828,16.269-4.501c-0.543-0.928-0.866-1.443-1.154-1.978
		c-0.43-0.798,1.755-1.15,0.276-2.325c-1.096-0.87,0.525-1.586,0.703-2.433c0.1-0.479,0.118-1.022-0.002-1.491
		c-0.268-1.045-0.783-2.041-0.942-3.096c-0.167-1.108-0.037-2.262-0.037-3.235c-0.372-0.245-0.503-0.406-0.634-0.407
		c-3.166-0.014-6.332-0.011-10.03-0.011c-0.486-0.799-1.174-1.93-1.861-3.061c-0.169,0.155-0.339,0.31-0.508,0.465
		c0-1.991,0-3.981,0-5.343c-1.151-2.487-1.923-4.528-3.004-6.39c-1.111-1.914-2.523-3.653-3.913-5.625
		c0.396-1.995-1.275-3.516-2.744-3.899c-2.702-0.705-4.053-3.033-6.306-4.147C51.507,50.436,51.507,49.436,51.507,48.436z
		 M128.508,51.934c-0.015-0.216-0.03-0.431-0.045-0.647c-2.197,0.716-4.35,1.733-6.604,2.066c-2.435,0.36-4.964,0.082-7.452,0.082
		c-1.99,0-3.981-0.016-5.971,0.018c-0.279,0.005-0.554,0.249-0.978,0.453c0.103,0.825,0.212,1.701,0.334,2.684
		c5.51-2.414,10.469-0.792,15.484,0.57c1.711-1.71,3.471-3.468,5.204-6.501c0.015,0.288,0.029,0.576,0.044,0.864
		c0.651-0.127,1.303-0.255,1.954-0.382c-0.029-0.215-0.058-0.43-0.088-0.646C129.755,50.55,129.118,50.605,128.508,51.934z
		 M113.629,74.814c-2.729-0.776-5.003-1.554-7.336-2.05c-2.305-0.49-4.592-1.119-6.913-1.549c-2.35-0.435-4.725,1.21-7.28-0.474
		c1.839-2.04,4.813-1.64,6.359-3.696c1.446-1.923,3.22-3.564,4.696-5.517c1.687-2.231,1.14-4.704,1.878-7.114
		c-1.747,1.294-3.493,2.589-5.417,4.014c-1.153-0.031-2.608,0.259-3.83-0.966c-0.886-0.888-2.505-1.316-2.949-2.323
		c-1.647-3.732-5.024-4.904-8.405-6.307c0.121-0.446,0.243-0.893,0.364-1.339c2.188-0.286,3.594,1.113,5.302,1.827
		c2.303,0.962,3.96,2.711,4.99,4.495c0.822,1.425,2.237,1.477,2.874,2.454c1.525-0.785,2.992-1.692,4.572-2.305
		c1.244-0.483,2.629-0.604,4.255-0.951c-0.971-0.475-1.592-0.779-2.578-1.262c2.916-2.153,5.579-4.12,8.331-6.152
		c-0.06-0.637-0.132-1.411-0.271-2.901c-1.804,1.49-3.095,2.557-4.381,3.619c-0.288-0.288-0.523-0.523-0.762-0.757
		c-0.435,0.257-0.871,0.514-1.477,0.872c-0.404-1.999,0.608-4.431-2.206-4.988c-1.507,0.719-2.989,1.426-4.774,2.278
		c0-1.238,0-2.026,0-2.859c2.16-1.077,3.063-4.037,5.925-4.443c2.649-0.375,5.278-0.884,7.75-1.306c0-1.271,0-2.389,0-3.494
		c-1.399-0.16-2.636-0.301-3.981-0.454c0.181-0.746,0.29-1.197,0.399-1.645c1.249-0.067,2.371-0.128,3.994-0.215
		c-0.529-2.445-1.012-4.681-1.535-7.098c-2.382,0.445-4.467,0.835-6.552,1.225c0.103-1.134,0.615-1.521,0.997-2.009
		c0.376-0.48,0.622-1.063,1.093-1.897c-2.364,0-4.148,0-5.029,0c-3.979,1.551-5.796,4.638-8.875,6.169
		c-1.273,0.633-2.37,1.909-3.175,3.137c-2.299,3.507-4.835,6.796-7.812,9.751c-3.784,3.756-7.543,7.536-10.297,10.29
		c-3.678,6.616-3.914,12.345-1.661,18.728c1.368,1.02,2.988,3.018,5.004,3.572c4.569,1.257,9.183,2.798,14.332,2.18
		c0.536,0.68,1.149,1.458,1.641,2.082c3.438,0,6.609,0.111,9.767-0.04c2.038-0.098,3.518,0.716,5.54,2
		c-2.057,1.581-3.492,3.274-5.301,3.922c-2.233,0.799-3.028,3.353-5.386,3.738c-0.517,2.186-3.559,1.997-4.079,4.66
		c1.532,1.886,3.188,4.024,4.974,6.046c0.388,0.44,1.243,0.467,1.883,0.684c0.087-0.181,0.175-0.363,0.262-0.544
		c-1.104-0.945-2.208-1.89-3.415-2.923c0.473-1.142,0.614-2.209,1.218-2.809c1.992-1.974,3.386-4.4,5.821-6.111
		c2.949-2.073,5.247-5.072,7.792-7.636c0.745,0,1.408,0,2.057,0c0.485-0.485,0.956-0.956-1.659-2.987c0.975,0,1.804,0,2.887,0
		c0.305-3.367,4.912-4.171,4.819-8.007c-6.332,0.141-12.798-0.844-18.767,2.674c0.312,0.602,0.515,0.993,0.814,1.569
		c3.697-2.275,7.553-0.895,11.745-1.23C111.257,70.452,110.815,71.924,113.629,74.814z M91.601,76.284
		c-3.282-0.301-6.271-0.559-9.255-0.862c-0.609-0.062-1.193-0.339-1.801-0.44c-3.274-0.543-6.489-2.186-9.888-0.551
		c-0.359,0.173-0.746,0.286-1.068,0.407c0.875,0.958,1.653,1.81,2.435,2.665c6.529-0.826,12.878,2.178,19.368,0.603
		C91.435,77.729,91.471,77.412,91.601,76.284z M107.993,41.899c1.018-0.998,2.146-2.105,3.23-3.168
		c-0.337-0.371-0.777-0.855-1.162-1.279c-1.874,0.471-3.657,0.919-5.657,1.422c0.649,0.569,1.207,1.074,1.783,1.559
		C106.799,40.947,107.427,41.441,107.993,41.899z M59.713,51.901c-1.882-0.227-3.143-2.512-5.515-0.815
		c1.723,0.912,3.261,1.726,4.837,2.56C59.292,52.983,59.4,52.705,59.713,51.901z M69.678,72.277c0.289-0.033,0.577-0.067,0.866-0.1
		c-0.13-0.545-0.26-1.09-0.39-1.636c-0.158,0.026-0.317,0.053-0.475,0.079C69.678,71.173,69.678,71.725,69.678,72.277z
		 M106.507,70.686c0,0.167,0,0.333,0,0.5c0.667,0,1.333,0,2,0c0-0.167,0-0.333,0-0.5C107.84,70.686,107.174,70.686,106.507,70.686z"
		/>
	<path d="M197.141,78.436c-4.203,0-8.362-0.094-12.51,0.075c-0.88,0.036-1.212-1.865-2.391-0.465
		c-0.228,0.27-1.539-0.487-2.372-0.583c-0.987-0.114-1.997-0.027-2.997-0.027s-2,0-3,0s-2.008-0.078-2.998,0.021
		c-1.032,0.104-2.046,0.379-3.234,0.611c-0.143-0.143-0.496-0.496-0.991-0.991c0-3.305,0-6.758,0-10.486
		c1.809-0.489,3.754-1.014,5.537-1.496c-1.876-2.56-3.811-5.201-5.678-7.749c0-2.902-0.046-5.55,0.011-8.195
		c0.08-3.678,1.48-7.027,3.11-10.198c0.667-1.297,2.342-2.076,3.914-3.388c0-0.941,0-2.397,0-3.985c4.624,0,9.077,0,13.671,0
		c1.403,3.785,2.912,7.663,4.275,11.591c1.317,3.794,2.129,7.804,3.812,11.417c1.78,3.821,2.484,7.962,4.237,11.934
		c-1.612,1.652-0.792,3.867-1.067,5.909C198.221,74.289,197.671,76.107,197.141,78.436z M191.509,50.91
		c-1.163-3.331-2.334-6.684-3.74-10.712c-0.029-0.029-1.313-5.192-1.612-6.629c-3.519,0-6.97,0-10.65,0
		c0,1.927,0.014,3.73-0.005,5.533c-0.038,3.507-0.647,6.937-0.723,10.434c-0.031,1.426-0.355,3.102-0.189,4.509
		c0.089,0.759,0.658,1.241,0.783,1.934c0.232,1.291-0.781,2.664-0.942,3.933c-0.149,1.177,1.088,4.172,0.745,4.994
		c-0.378,0.907-0.674,1.618-1.043,2.504c-1.374,0-2.826,0-4.274,0c-2.351,2.519-0.969,5.311-1.379,7.914
		c4.954,0.412,9.461-0.083,14.022,0.946c3.646,0.822,7.627,0.233,11.455,0.114c0.856-0.027,1.693-0.705,1.969-0.828
		c-0.051-1.962-0.387-3.505-0.067-4.898c0.718-3.133,0.443-3.048-0.2-7.822C195.268,59.937,191.177,51.274,191.509,50.91z
		 M172.36,40.148c-3.345,2.906-2.656,6.891-3.644,10.086c-1.052,3.4,1.533,6.79,2.151,10.402c0.776-0.269,1.212-0.42,1.493-0.517
		C172.36,53.521,172.36,47.079,172.36,40.148z"/>
	<path d="M160.876,84.462c-1.289-0.436-2.379-1.221-3.003-0.947c-3.967,1.745-8.09,0.587-12.118,0.904
		c-1.301,0.103-2.617,0.016-4.31,0.016c0.601,6.696-2.086,13.005-0.691,19.254c-0.804,0.804-1.275,1.275-1.746,1.746
		c-0.471-0.471-0.943-0.943-1.357-1.357c0.291-1.736,0.63-3.413,0.845-5.107c0.488-3.846-0.854-7.788,0.885-11.638
		c0.423-0.937-0.721-2.582-1.182-4.019c-2.591,0-5.047,0-7.59,0c0-0.627,0-1.078,0-1.949c2.541,0.483,5.123-0.859,7.522,1.024
		c0.412,0.324,1.297,0.046,1.963,0.046c6.498,0,12.998,0.087,19.493-0.046c2.367-0.048,4.722-0.632,7.085-0.951
		c2.2-0.297,4.546,0.723,6.632-0.943c0.509-0.406,1.618-0.06,2.451-0.06c3.832,0,7.664,0,11.497,0c1.833,0,3.666,0,5.498,0
		c0.98,2.2,3.028-0.534,4.289,0.971c1.187,1.416,2.189-1.664,3.811-0.297c0.805,0.679,2.415,0.402,3.644,0.555
		c0,0.571,0,0.901,0,1.7c-3.233-0.363-6.452-0.725-10.156-1.141c0.252,2.722,0.611,4.967,0.626,7.215
		c0.016,2.43-0.356,4.859-0.437,7.292c-0.083,2.47-0.018,4.944-0.597,7.809c-0.122-0.851-0.244-1.703-0.367-2.554
		c-0.392,0.322-0.784,0.645-1.175,0.967c0.679-6.334-0.902-12.78,1.055-19.084c-0.437-0.437-0.908-0.908-1.435-1.435
		c-6.935,0-13.925,0-20.916,0C168.086,85.053,163.929,81.821,160.876,84.462z"/>
	<path d="M148.032,69.447c1.137,1.571,2.687,0.87,3.895,0.904c0.623-0.533,1.118-0.957,1.614-1.381
		c-0.304-0.304-0.54-0.54-1.193-1.193c0.711-0.281,1.43-0.566,1.971-0.78c0.325,0.507,0.989,1.544,1.391,2.173
		c2.773-0.35,5.105-0.644,7.437-0.939c3.293,1.473,0.838,9.267,0.072,11.205c-3.799,0-7.606-0.075-11.408,0.022
		c-3.675,0.093-7.422-0.677-10.958,1.074c-0.366-2.286-0.686-4.283-1.039-6.484c0.979-0.925,2.256-2.132,3.788-3.58
		c0.431,0.214,1.254,0.624,2.116,1.053C146.408,70.902,147.058,70.319,148.032,69.447z M160.97,70.172
		c-6.08,1.298-12.191,2.964-18.369,4.556c0,0.833,0,1.614,0,2.547c6.638,0,13.182,0,19.812,0c-0.402-0.804-0.723-1.446-1.008-2.017
		c0.465-0.645,0.828-1.148,1.166-1.616C162.074,72.565,161.624,71.589,160.97,70.172z"/>
	<path d="M109.413,7.436c-1.886,0-2.886-0.101-3.854,0.036c-0.636,0.089-1.223,0.521-2.576,1.138
		c0.791-1.458,1.207-2.226,1.652-3.045c1.547,0,2.985,0,4.416,0c1.565,1.334,4.229,1.646,4.537,4.466
		c-0.497,0.179-0.926,0.333-1.518,0.546C111.121,9.454,110.174,8.335,109.413,7.436z"/>
	<path d="M103.007,15.436c-0.682-0.682-1.028-1.028-1.428-1.428c1.961-3.015,5.004-0.897,7.636-1.762
		c0.126,0.719,0.224,1.279,0.307,1.757C107.368,15.272,104.755,13.239,103.007,15.436z"/>
	<path d="M98.735,50.331c3.508-0.005,4.501-3.831,7.962-2.536c-1.056,0.981-1.893,1.886-2.861,2.618
		c-0.864,0.654-1.873,1.116-3.506,2.062c-0.907-0.186-2.562-0.526-3.808-0.782c-2.146-2.805-4.031-5.269-5.992-7.832
		c0.655-0.538,1.355-1.111,2.014-1.651C94.817,45.192,96.893,47.915,98.735,50.331z"/>
</g>
</svg>
